<svg width="1440" height="900" viewBox="0 0 1440 900" fill="none" xmlns="http://www.w3.org/2000/svg">
<g clip-path="url(#clip0_3314_2)">
<path d="M72 64H0V900H72V64Z" fill="#1A1A1A"/>
<path d="M73 798H0V838H73V798Z" fill="#E0E0E0"/>
<path d="M273 76H73V912H273V76Z" fill="#202020"/>
<path d="M272 84H72V132H272V84Z" fill="#E0E0E0"/>
<path d="M1440 0H0V64H1440V0Z" fill="#121212"/>
<path d="M27.0838 40.1662C26.6345 40.1662 26.2267 40.0816 25.8604 39.9123C25.4942 39.7399 25.2034 39.4922 24.9879 39.169C24.7725 38.8428 24.6648 38.4489 24.6648 37.9872C24.6648 37.581 24.7448 37.2517 24.9048 36.9993C25.0649 36.7438 25.2788 36.5438 25.5465 36.3991C25.8143 36.2545 26.1097 36.1468 26.4329 36.076C26.7591 36.0021 27.0869 35.9437 27.4162 35.9006C27.8471 35.8452 28.1964 35.8036 28.4641 35.7759C28.735 35.7451 28.9319 35.6944 29.055 35.6236C29.1812 35.5528 29.2443 35.4297 29.2443 35.2543V35.2173C29.2443 34.7618 29.1197 34.4079 28.8704 34.1555C28.6242 33.9032 28.2502 33.777 27.7486 33.777C27.2285 33.777 26.8207 33.8909 26.5252 34.1186C26.2298 34.3464 26.022 34.5895 25.902 34.848L24.8679 34.4787C25.0526 34.0478 25.2988 33.7124 25.6065 33.4723C25.9174 33.2292 26.2559 33.0599 26.6222 32.9645C26.9915 32.866 27.3546 32.8168 27.7116 32.8168C27.9394 32.8168 28.201 32.8445 28.4964 32.8999C28.795 32.9522 29.0827 33.0614 29.3597 33.2276C29.6398 33.3938 29.8722 33.6446 30.0568 33.9801C30.2415 34.3156 30.3338 34.7649 30.3338 35.3281V40H29.2443V39.0398H29.1889C29.1151 39.1937 28.992 39.3583 28.8196 39.5337C28.6473 39.7092 28.418 39.8584 28.1317 39.9815C27.8455 40.1046 27.4962 40.1662 27.0838 40.1662ZM27.25 39.1875C27.6809 39.1875 28.044 39.1029 28.3395 38.9336C28.638 38.7643 28.8627 38.5458 29.0135 38.2781C29.1674 38.0103 29.2443 37.7287 29.2443 37.4332V36.4361C29.1982 36.4915 29.0966 36.5423 28.9396 36.5884C28.7857 36.6315 28.6072 36.67 28.4041 36.7038C28.2041 36.7346 28.0086 36.7623 27.8178 36.7869C27.6301 36.8085 27.4777 36.8269 27.3608 36.8423C27.0777 36.8793 26.813 36.9393 26.5668 37.0224C26.3236 37.1024 26.1267 37.224 25.9759 37.3871C25.8281 37.5471 25.7543 37.7656 25.7543 38.0426C25.7543 38.4212 25.8943 38.7074 26.1744 38.9013C26.4575 39.0921 26.8161 39.1875 27.25 39.1875ZM34.9999 40.1477C34.409 40.1477 33.8873 39.9985 33.4349 39.6999C32.9825 39.3983 32.6286 38.9736 32.3731 38.4258C32.1177 37.8749 31.99 37.224 31.99 36.473C31.99 35.7282 32.1177 35.0819 32.3731 34.5341C32.6286 33.9863 32.984 33.5631 33.4395 33.2646C33.895 32.966 34.4213 32.8168 35.0184 32.8168C35.48 32.8168 35.8447 32.8937 36.1125 33.0476C36.3833 33.1984 36.5895 33.3707 36.7311 33.5646C36.8757 33.7554 36.9881 33.9124 37.0681 34.0355H37.1604V30.5455H38.2499V40H37.1974V38.9105H37.0681C36.9881 39.0398 36.8742 39.2029 36.7265 39.3999C36.5787 39.5937 36.3679 39.7676 36.094 39.9215C35.8201 40.0723 35.4554 40.1477 34.9999 40.1477ZM35.1476 39.169C35.5847 39.169 35.954 39.0552 36.2556 38.8274C36.5572 38.5966 36.7865 38.2781 36.9434 37.8718C37.1004 37.4625 37.1789 36.9901 37.1789 36.4545C37.1789 35.9252 37.1019 35.462 36.9481 35.065C36.7942 34.6649 36.5664 34.354 36.2648 34.1325C35.9632 33.9078 35.5908 33.7955 35.1476 33.7955C34.686 33.7955 34.3013 33.9139 33.9935 34.1509C33.6888 34.3848 33.4595 34.7034 33.3057 35.1065C33.1549 35.5066 33.0795 35.956 33.0795 36.4545C33.0795 36.9593 33.1564 37.4179 33.3103 37.8303C33.4672 38.2396 33.6981 38.5658 34.0028 38.8089C34.3105 39.049 34.6921 39.169 35.1476 39.169ZM40.3966 40V32.9091H41.4491V34.017H41.5415C41.6892 33.6385 41.9277 33.3446 42.257 33.1353C42.5863 32.9229 42.9818 32.8168 43.4434 32.8168C43.9113 32.8168 44.3006 32.9229 44.6114 33.1353C44.9253 33.3446 45.17 33.6385 45.3454 34.017H45.4193C45.6009 33.6508 45.8733 33.36 46.2364 33.1445C46.5996 32.926 47.0351 32.8168 47.5429 32.8168C48.1769 32.8168 48.6955 33.0153 49.0986 33.4123C49.5018 33.8062 49.7034 34.4202 49.7034 35.2543V40H48.6139V35.2543C48.6139 34.7311 48.4708 34.3571 48.1846 34.1325C47.8983 33.9078 47.5613 33.7955 47.1736 33.7955C46.675 33.7955 46.2887 33.9463 46.0148 34.2479C45.7409 34.5464 45.604 34.925 45.604 35.3835V40H44.496V35.1435C44.496 34.7403 44.3652 34.4156 44.1036 34.1694C43.842 33.9201 43.505 33.7955 43.0926 33.7955C42.8095 33.7955 42.5448 33.8709 42.2986 34.0217C42.0554 34.1725 41.8585 34.3817 41.7077 34.6495C41.5599 34.9142 41.4861 35.2204 41.4861 35.5682V40H40.3966ZM51.6954 40V32.9091H52.7849V40H51.6954ZM52.2494 31.7273C52.037 31.7273 51.8539 31.6549 51.7 31.5103C51.5492 31.3656 51.4738 31.1918 51.4738 30.9886C51.4738 30.7855 51.5492 30.6116 51.7 30.467C51.8539 30.3223 52.037 30.25 52.2494 30.25C52.4617 30.25 52.6433 30.3223 52.7941 30.467C52.948 30.6116 53.0249 30.7855 53.0249 30.9886C53.0249 31.1918 52.948 31.3656 52.7941 31.5103C52.6433 31.6549 52.4617 31.7273 52.2494 31.7273ZM55.8699 35.7344V40H54.7804V32.9091H55.8329V34.017H55.9252C56.0914 33.657 56.3438 33.3677 56.6824 33.1491C57.0209 32.9276 57.4579 32.8168 57.9934 32.8168C58.4735 32.8168 58.8936 32.9152 59.2537 33.1122C59.6138 33.3061 59.8939 33.6016 60.0939 33.9986C60.294 34.3925 60.394 34.8911 60.394 35.4943V40H59.3045V35.5682C59.3045 35.0111 59.1599 34.5772 58.8706 34.2663C58.5813 33.9524 58.1842 33.7955 57.6795 33.7955C57.3317 33.7955 57.0209 33.8709 56.747 34.0217C56.4761 34.1725 56.2623 34.3925 56.1053 34.6818C55.9483 34.9711 55.8699 35.322 55.8699 35.7344ZM65.4502 40.1293C64.7546 40.1293 64.1622 39.94 63.6729 39.5614C63.1835 39.1798 62.8096 38.6274 62.551 37.9041C62.2925 37.1778 62.1633 36.3007 62.1633 35.2727C62.1633 34.2509 62.2925 33.3784 62.551 32.6552C62.8126 31.9289 63.1881 31.3749 63.6775 30.9933C64.1699 30.6085 64.7608 30.4162 65.4502 30.4162C66.1396 30.4162 66.729 30.6085 67.2183 30.9933C67.7107 31.3749 68.0862 31.9289 68.3447 32.6552C68.6063 33.3784 68.7371 34.2509 68.7371 35.2727C68.7371 36.3007 68.6079 37.1778 68.3493 37.9041C68.0908 38.6274 67.7169 39.1798 67.2275 39.5614C66.7382 39.94 66.1457 40.1293 65.4502 40.1293ZM65.4502 39.1136C66.1396 39.1136 66.6751 38.7812 67.0567 38.1165C67.4384 37.4517 67.6292 36.5038 67.6292 35.2727C67.6292 34.4541 67.5415 33.757 67.366 33.1815C67.1937 32.6059 66.9444 32.1674 66.6182 31.8658C66.295 31.5642 65.9057 31.4134 65.4502 31.4134C64.767 31.4134 64.233 31.7504 63.8483 32.4244C63.4636 33.0953 63.2712 34.0447 63.2712 35.2727C63.2712 36.0914 63.3574 36.7869 63.5297 37.3594C63.7021 37.9318 63.9498 38.3673 64.273 38.6658C64.5992 38.9644 64.9916 39.1136 65.4502 39.1136ZM73.8153 30.5455V40H72.6704V31.7457H72.615L70.3067 33.2784V32.1151L72.6704 30.5455H73.8153ZM81.0031 36.6946C80.7754 36.6946 80.5799 36.613 80.4168 36.4499C80.2537 36.2868 80.1721 36.0914 80.1721 35.8636C80.1721 35.6359 80.2537 35.4405 80.4168 35.2773C80.5799 35.1142 80.7754 35.0327 81.0031 35.0327C81.2309 35.0327 81.4263 35.1142 81.5894 35.2773C81.7525 35.4405 81.8341 35.6359 81.8341 35.8636C81.8341 36.0144 81.7956 36.1529 81.7187 36.2791C81.6448 36.4053 81.5448 36.5069 81.4186 36.5838C81.2955 36.6577 81.157 36.6946 81.0031 36.6946ZM92.7636 32.9091C92.7082 32.4413 92.4835 32.0781 92.0896 31.8196C91.6956 31.5611 91.2124 31.4318 90.64 31.4318C90.2214 31.4318 89.8552 31.4995 89.5413 31.6349C89.2304 31.7704 88.9873 31.9566 88.8119 32.1935C88.6395 32.4305 88.5534 32.6998 88.5534 33.0014C88.5534 33.2538 88.6134 33.4708 88.7334 33.6523C88.8565 33.8308 89.0135 33.9801 89.2043 34.1001C89.3951 34.2171 89.5951 34.314 89.8044 34.391C90.0137 34.4648 90.2061 34.5249 90.3815 34.571L91.3417 34.8295C91.5879 34.8942 91.8618 34.9834 92.1634 35.0973C92.4681 35.2112 92.759 35.3666 93.036 35.5636C93.316 35.7575 93.5468 36.0067 93.7284 36.3114C93.91 36.6161 94.0008 36.9901 94.0008 37.4332C94.0008 37.9441 93.8669 38.4058 93.5992 38.8182C93.3345 39.2306 92.9467 39.5584 92.4358 39.8015C91.928 40.0446 91.3109 40.1662 90.5846 40.1662C89.9075 40.1662 89.3212 40.0569 88.8257 39.8384C88.3333 39.6199 87.9455 39.3152 87.6624 38.9244C87.3823 38.5335 87.2238 38.0795 87.1869 37.5625H88.3687C88.3995 37.9195 88.5195 38.215 88.7288 38.4489C88.9411 38.6797 89.2089 38.852 89.532 38.9659C89.8583 39.0767 90.2091 39.1321 90.5846 39.1321C91.0216 39.1321 91.414 39.0613 91.7618 38.9197C92.1096 38.7751 92.385 38.575 92.5882 38.3196C92.7913 38.0611 92.8928 37.7595 92.8928 37.4148C92.8928 37.1009 92.8051 36.8454 92.6297 36.6484C92.4543 36.4515 92.2235 36.2914 91.9372 36.1683C91.651 36.0452 91.3417 35.9375 91.0093 35.8452L89.846 35.5128C89.1073 35.3004 88.5226 34.9973 88.0917 34.6033C87.6608 34.2094 87.4454 33.6939 87.4454 33.0568C87.4454 32.5275 87.5885 32.0658 87.8747 31.6719C88.164 31.2749 88.5518 30.9671 89.0381 30.7486C89.5274 30.527 90.0737 30.4162 90.6769 30.4162C91.2863 30.4162 91.828 30.5254 92.3019 30.744C92.7759 30.9594 93.1514 31.2549 93.4284 31.6303C93.7084 32.0058 93.8561 32.4321 93.8715 32.9091H92.7636ZM102.088 30.5455H103.233V36.8054C103.233 37.4517 103.08 38.0288 102.776 38.5366C102.474 39.0413 102.048 39.4399 101.497 39.7322C100.946 40.0215 100.3 40.1662 99.5579 40.1662C98.8162 40.1662 98.1699 40.0215 97.619 39.7322C97.0681 39.4399 96.6403 39.0413 96.3356 38.5366C96.034 38.0288 95.8832 37.4517 95.8832 36.8054V30.5455H97.0281V36.7131C97.0281 37.1747 97.1296 37.5856 97.3327 37.9457C97.5359 38.3027 97.8252 38.5843 98.2006 38.7905C98.5792 38.9936 99.0316 39.0952 99.5579 39.0952C100.084 39.0952 100.537 38.9936 100.915 38.7905C101.294 38.5843 101.583 38.3027 101.783 37.9457C101.986 37.5856 102.088 37.1747 102.088 36.7131V30.5455ZM105.519 40V30.5455H108.714C109.455 30.5455 110.062 30.6793 110.532 30.9471C111.006 31.2118 111.357 31.5703 111.585 32.0227C111.813 32.4751 111.927 32.9799 111.927 33.5369C111.927 34.094 111.813 34.6003 111.585 35.0558C111.36 35.5112 111.013 35.8744 110.542 36.1452C110.071 36.413 109.468 36.5469 108.732 36.5469H106.442V35.5312H108.695C109.203 35.5312 109.611 35.4435 109.918 35.2681C110.226 35.0927 110.449 34.8557 110.588 34.5572C110.729 34.2556 110.8 33.9155 110.8 33.5369C110.8 33.1584 110.729 32.8198 110.588 32.5213C110.449 32.2228 110.225 31.9889 109.914 31.8196C109.603 31.6473 109.191 31.5611 108.677 31.5611H106.664V40H105.519ZM113.771 40V30.5455H119.477V31.5611H114.916V34.7557H119.181V35.7713H114.916V38.9844H119.551V40H113.771ZM121.54 40V30.5455H124.735C125.474 30.5455 126.08 30.6716 126.554 30.924C127.028 31.1733 127.379 31.5165 127.606 31.9535C127.834 32.3905 127.948 32.8875 127.948 33.4446C127.948 34.0017 127.834 34.4956 127.606 34.9265C127.379 35.3574 127.029 35.6959 126.559 35.9421C126.088 36.1853 125.486 36.3068 124.753 36.3068H122.168V35.2727H124.717C125.221 35.2727 125.628 35.1989 125.935 35.0511C126.246 34.9034 126.471 34.6941 126.609 34.4233C126.751 34.1494 126.822 33.8232 126.822 33.4446C126.822 33.0661 126.751 32.7352 126.609 32.4521C126.468 32.1689 126.242 31.9504 125.931 31.7965C125.62 31.6396 125.209 31.5611 124.698 31.5611H122.685V40H121.54ZM125.991 35.7528L128.317 40H126.988L124.698 35.7528H125.991ZM134.602 40V41.0156H128.692V40H134.602ZM136.122 40H134.921L138.393 30.5455H139.575L143.046 40H141.846L139.021 32.0412H138.947L136.122 40ZM136.565 36.3068H141.403V37.3224H136.565V36.3068ZM147.437 40H144.519V30.5455H147.566C148.483 30.5455 149.268 30.7347 149.92 31.1133C150.573 31.4888 151.073 32.0289 151.421 32.7337C151.768 33.4354 151.942 34.2756 151.942 35.2543C151.942 36.2391 151.767 37.087 151.416 37.7979C151.065 38.5058 150.554 39.0505 149.883 39.4322C149.212 39.8107 148.397 40 147.437 40ZM145.664 38.9844H147.363C148.144 38.9844 148.792 38.8336 149.306 38.532C149.82 38.2304 150.203 37.801 150.456 37.244C150.708 36.6869 150.834 36.0237 150.834 35.2543C150.834 34.491 150.71 33.8339 150.46 33.283C150.211 32.729 149.839 32.3043 149.343 32.0089C148.848 31.7103 148.231 31.5611 147.492 31.5611H145.664V38.9844ZM153.863 30.5455H155.229L158.442 38.3935H158.553L161.766 30.5455H163.133V40H162.062V32.8168H161.969L159.015 40H157.981L155.026 32.8168H154.934V40H153.863V30.5455ZM166.573 30.5455V40H165.428V30.5455H166.573ZM176.366 30.5455V40H175.258L170.106 32.5767H170.013V40H168.869V30.5455H169.976L175.147 37.9872H175.239V30.5455H176.366Z" fill="white"/>
<path d="M280 24H224C221.791 24 220 25.7909 220 28V44C220 46.2091 221.791 48 224 48H280C282.209 48 284 46.2091 284 44V28C284 25.7909 282.209 24 280 24Z" fill="#2E2E2E"/>
<path d="M236.969 41V33H237.938V40.1406H241.656V41H236.969ZM245.469 41.125C244.927 41.125 244.452 40.9961 244.043 40.7383C243.637 40.4805 243.319 40.1198 243.09 39.6562C242.863 39.1927 242.75 38.651 242.75 38.0312C242.75 37.4062 242.863 36.8607 243.09 36.3945C243.319 35.9284 243.637 35.5664 244.043 35.3086C244.452 35.0508 244.927 34.9219 245.469 34.9219C246.01 34.9219 246.484 35.0508 246.891 35.3086C247.299 35.5664 247.617 35.9284 247.844 36.3945C248.073 36.8607 248.188 37.4062 248.188 38.0312C248.188 38.651 248.073 39.1927 247.844 39.6562C247.617 40.1198 247.299 40.4805 246.891 40.7383C246.484 40.9961 246.01 41.125 245.469 41.125ZM245.469 40.2969C245.88 40.2969 246.219 40.1914 246.484 39.9805C246.75 39.7695 246.947 39.4922 247.074 39.1484C247.202 38.8047 247.266 38.4323 247.266 38.0312C247.266 37.6302 247.202 37.2565 247.074 36.9102C246.947 36.5638 246.75 36.2839 246.484 36.0703C246.219 35.8568 245.88 35.75 245.469 35.75C245.057 35.75 244.719 35.8568 244.453 36.0703C244.188 36.2839 243.991 36.5638 243.863 36.9102C243.736 37.2565 243.672 37.6302 243.672 38.0312C243.672 38.4323 243.736 38.8047 243.863 39.1484C243.991 39.4922 244.188 39.7695 244.453 39.9805C244.719 40.1914 245.057 40.2969 245.469 40.2969ZM252.017 43.375C251.571 43.375 251.188 43.3177 250.868 43.2031C250.548 43.0911 250.281 42.9427 250.067 42.7578C249.856 42.5755 249.688 42.3802 249.563 42.1719L250.298 41.6563C250.381 41.7656 250.487 41.8906 250.614 42.0312C250.742 42.1745 250.916 42.2982 251.138 42.4023C251.362 42.5091 251.655 42.5625 252.017 42.5625C252.501 42.5625 252.901 42.4453 253.216 42.2109C253.531 41.9766 253.688 41.6094 253.688 41.1094V39.8906H253.61C253.543 40 253.446 40.1354 253.321 40.2969C253.199 40.4557 253.022 40.5977 252.79 40.7227C252.561 40.8451 252.251 40.9062 251.86 40.9062C251.376 40.9062 250.941 40.7917 250.556 40.5625C250.173 40.3333 249.869 40 249.646 39.5625C249.424 39.125 249.313 38.5937 249.313 37.9687C249.313 37.3542 249.422 36.819 249.638 36.3633C249.854 35.9049 250.155 35.5508 250.54 35.3008C250.925 35.0482 251.371 34.9219 251.876 34.9219C252.267 34.9219 252.576 34.987 252.806 35.1172C253.037 35.2448 253.215 35.3906 253.337 35.5547C253.462 35.7161 253.558 35.849 253.626 35.9531H253.72V35H254.61V41.1719C254.61 41.6875 254.493 42.1068 254.259 42.4297C254.027 42.7552 253.715 42.9935 253.321 43.1445C252.931 43.2982 252.496 43.375 252.017 43.375ZM251.985 40.0781C252.355 40.0781 252.668 39.9935 252.923 39.8242C253.178 39.6549 253.372 39.4115 253.505 39.0938C253.638 38.776 253.704 38.3958 253.704 37.9531C253.704 37.5208 253.639 37.1393 253.509 36.8086C253.379 36.4779 253.186 36.2187 252.931 36.0312C252.675 35.8437 252.36 35.75 251.985 35.75C251.595 35.75 251.269 35.849 251.009 36.0469C250.751 36.2448 250.557 36.5104 250.427 36.8438C250.299 37.1771 250.235 37.5469 250.235 37.9531C250.235 38.3698 250.3 38.7383 250.431 39.0586C250.563 39.3763 250.759 39.6263 251.017 39.8086C251.277 39.9883 251.6 40.0781 251.985 40.0781ZM258.735 41.125C258.194 41.125 257.718 40.9961 257.31 40.7383C256.903 40.4805 256.586 40.1198 256.356 39.6562C256.13 39.1927 256.017 38.651 256.017 38.0312C256.017 37.4062 256.13 36.8607 256.356 36.3945C256.586 35.9284 256.903 35.5664 257.31 35.3086C257.718 35.0508 258.194 34.9219 258.735 34.9219C259.277 34.9219 259.751 35.0508 260.157 35.3086C260.566 35.5664 260.884 35.9284 261.11 36.3945C261.34 36.8607 261.454 37.4062 261.454 38.0312C261.454 38.651 261.34 39.1927 261.11 39.6562C260.884 40.1198 260.566 40.4805 260.157 40.7383C259.751 40.9961 259.277 41.125 258.735 41.125ZM258.735 40.2969C259.147 40.2969 259.485 40.1914 259.751 39.9805C260.017 39.7695 260.213 39.4922 260.341 39.1484C260.468 38.8047 260.532 38.4323 260.532 38.0312C260.532 37.6302 260.468 37.2565 260.341 36.9102C260.213 36.5638 260.017 36.2839 259.751 36.0703C259.485 35.8568 259.147 35.75 258.735 35.75C258.324 35.75 257.985 35.8568 257.72 36.0703C257.454 36.2839 257.257 36.5638 257.13 36.9102C257.002 37.2565 256.938 37.6302 256.938 38.0312C256.938 38.4323 257.002 38.8047 257.13 39.1484C257.257 39.4922 257.454 39.7695 257.72 39.9805C257.985 40.1914 258.324 40.2969 258.735 40.2969ZM266.643 38.5469V35H267.564V41H266.643V39.9844H266.58C266.439 40.2891 266.221 40.5482 265.924 40.7617C265.627 40.9727 265.252 41.0781 264.799 41.0781C264.424 41.0781 264.09 40.9961 263.799 40.832C263.507 40.6654 263.278 40.4154 263.111 40.082C262.945 39.7461 262.861 39.3229 262.861 38.8125V35H263.783V38.75C263.783 39.1875 263.906 39.5365 264.15 39.7969C264.398 40.0573 264.713 40.1875 265.096 40.1875C265.325 40.1875 265.558 40.1289 265.795 40.0117C266.035 39.8945 266.235 39.7148 266.396 39.4727C266.561 39.2305 266.643 38.9219 266.643 38.5469ZM271.862 35V35.7812H268.753V35H271.862ZM269.659 33.5625H270.581V39.2812C270.581 39.5417 270.619 39.737 270.694 39.8672C270.772 39.9948 270.871 40.0807 270.991 40.125C271.114 40.1667 271.243 40.1875 271.378 40.1875C271.479 40.1875 271.563 40.1823 271.628 40.1719C271.693 40.1589 271.745 40.1484 271.784 40.1406L271.972 40.9687C271.909 40.9922 271.822 41.0156 271.71 41.0391C271.598 41.0651 271.456 41.0781 271.284 41.0781C271.024 41.0781 270.769 41.0221 270.519 40.9102C270.271 40.7982 270.065 40.6276 269.901 40.3984C269.74 40.1693 269.659 39.8802 269.659 39.5312V33.5625Z" fill="white"/>
<path d="M1240 39.84H1252V27.84H1240V39.84Z" fill="white"/>
<path d="M1281.06 40V31.2727H1286.32V32.2102H1282.11V35.1591H1286.05V36.0966H1282.11V39.0625H1286.39V40H1281.06ZM1295.15 31.2727V40H1294.13L1289.37 33.1477H1289.29V40H1288.23V31.2727H1289.25L1294.02 38.142H1294.11V31.2727H1295.15Z" fill="white"/>
<path d="M14.99 812.43H18.99V813.12H14.99V812.43ZM16.35 814.45H17.17V816.71H16.35V814.45ZM18.66 812.43H19.47V812.91C19.47 813.21 19.46 813.583 19.44 814.03C19.4267 814.477 19.36 814.997 19.24 815.59L18.42 815.51C18.54 814.91 18.61 814.4 18.63 813.98C18.65 813.56 18.66 813.203 18.66 812.91V812.43ZM20.7 811.73H21.54V818.54H20.7V811.73ZM21.16 814.67H22.83V815.37H21.16V814.67ZM15.82 819.9H21.83V820.58H15.82V819.9ZM15.82 817.92H16.65V820.1H15.82V817.92ZM14.53 817.1L14.44 816.42C14.9733 816.42 15.5633 816.413 16.21 816.4C16.8567 816.387 17.5133 816.36 18.18 816.32C18.8467 816.273 19.4867 816.21 20.1 816.13L20.15 816.74C19.53 816.847 18.8867 816.927 18.22 816.98C17.5533 817.033 16.9033 817.067 16.27 817.08C15.6433 817.093 15.0633 817.1 14.53 817.1ZM30.2892 811.73H31.1092V820.79H30.2892V811.73ZM24.2192 817.91H24.9692C25.4826 817.91 25.9759 817.903 26.4492 817.89C26.9292 817.87 27.4126 817.837 27.8992 817.79C28.3926 817.743 28.9059 817.677 29.4392 817.59L29.5192 818.27C28.7059 818.403 27.9392 818.493 27.2192 818.54C26.4992 818.58 25.7492 818.6 24.9692 818.6H24.2192V817.91ZM24.1992 812.57H28.3792V815.8H25.0592V818.17H24.2192V815.13H27.5392V813.25H24.1992V812.57ZM35.1284 813.03H35.7984V814.49C35.7984 814.963 35.7318 815.433 35.5984 815.9C35.4651 816.36 35.2784 816.797 35.0384 817.21C34.8051 817.617 34.5351 817.98 34.2284 818.3C33.9218 818.613 33.5918 818.86 33.2384 819.04L32.7484 818.38C33.0751 818.22 33.3784 818.003 33.6584 817.73C33.9451 817.45 34.1984 817.133 34.4184 816.78C34.6384 816.42 34.8118 816.047 34.9384 815.66C35.0651 815.267 35.1284 814.877 35.1284 814.49V813.03ZM35.2884 813.03H35.9484V814.49C35.9484 814.85 36.0051 815.213 36.1184 815.58C36.2384 815.947 36.4051 816.297 36.6184 816.63C36.8318 816.963 37.0784 817.263 37.3584 817.53C37.6451 817.79 37.9484 818 38.2684 818.16L37.7984 818.82C37.4451 818.64 37.1151 818.4 36.8084 818.1C36.5018 817.793 36.2351 817.447 36.0084 817.06C35.7818 816.673 35.6051 816.26 35.4784 815.82C35.3518 815.38 35.2884 814.937 35.2884 814.49V813.03ZM33.0684 812.66H37.9484V813.35H33.0684V812.66ZM39.0184 811.73H39.8484V820.78H39.0184V811.73ZM39.6584 815.38H41.3284V816.08H39.6584V815.38ZM46.7377 813.37H49.0577V814.05H46.7377V813.37ZM48.7077 811.73H49.5377V816.4H48.7077V811.73ZM43.7177 816.86H49.5377V819.03H44.5477V820.4H43.7377V818.4H48.7177V817.52H43.7177V816.86ZM43.7377 819.99H49.8677V820.66H43.7377V819.99ZM44.3577 812.02H45.0277V812.86C45.0277 813.413 44.9243 813.93 44.7177 814.41C44.511 814.883 44.221 815.293 43.8477 815.64C43.4743 815.98 43.0343 816.24 42.5277 816.42L42.0877 815.76C42.541 815.607 42.9377 815.387 43.2777 815.1C43.6177 814.813 43.881 814.48 44.0677 814.1C44.261 813.713 44.3577 813.3 44.3577 812.86V812.02ZM44.4877 812.02H45.1677V812.86C45.1677 813.153 45.221 813.44 45.3277 813.72C45.4343 813.993 45.5843 814.25 45.7777 814.49C45.9777 814.73 46.2143 814.943 46.4877 815.13C46.761 815.31 47.061 815.453 47.3877 815.56L46.9477 816.21C46.461 816.037 46.031 815.787 45.6577 815.46C45.291 815.127 45.0043 814.74 44.7977 814.3C44.591 813.853 44.4877 813.373 44.4877 812.86V812.02ZM56.1269 814.08H58.1569V814.77H56.1269V814.08ZM57.9069 811.73H58.7369V817.12H57.9069V811.73ZM55.7569 817.4C56.3835 817.4 56.9202 817.467 57.3669 817.6C57.8202 817.733 58.1669 817.927 58.4069 818.18C58.6469 818.427 58.7669 818.73 58.7669 819.09C58.7669 819.623 58.4969 820.037 57.9569 820.33C57.4235 820.623 56.6902 820.77 55.7569 820.77C54.8235 820.77 54.0869 820.623 53.5469 820.33C53.0135 820.037 52.7469 819.623 52.7469 819.09C52.7469 818.73 52.8669 818.427 53.1069 818.18C53.3535 817.927 53.7002 817.733 54.1469 817.6C54.6002 817.467 55.1369 817.4 55.7569 817.4ZM55.7569 818.05C55.3035 818.05 54.9135 818.09 54.5869 818.17C54.2602 818.25 54.0069 818.367 53.8269 818.52C53.6535 818.673 53.5669 818.863 53.5669 819.09C53.5669 819.303 53.6535 819.487 53.8269 819.64C54.0069 819.793 54.2602 819.913 54.5869 820C54.9135 820.08 55.3035 820.12 55.7569 820.12C56.2169 820.12 56.6069 820.08 56.9269 820C57.2535 819.913 57.5035 819.793 57.6769 819.64C57.8569 819.487 57.9469 819.303 57.9469 819.09C57.9469 818.863 57.8569 818.673 57.6769 818.52C57.5035 818.367 57.2535 818.25 56.9269 818.17C56.6069 818.09 56.2169 818.05 55.7569 818.05ZM53.5969 812.65H54.2769V813.38C54.2769 813.933 54.1702 814.453 53.9569 814.94C53.7502 815.42 53.4569 815.843 53.0769 816.21C52.6969 816.57 52.2569 816.847 51.7569 817.04L51.3269 816.38C51.6669 816.26 51.9735 816.097 52.2469 815.89C52.5269 815.683 52.7669 815.447 52.9669 815.18C53.1735 814.913 53.3302 814.627 53.4369 814.32C53.5435 814.013 53.5969 813.7 53.5969 813.38V812.65ZM53.7569 812.65H54.4369V813.37C54.4369 813.757 54.5269 814.133 54.7069 814.5C54.8869 814.867 55.1435 815.19 55.4769 815.47C55.8102 815.75 56.1935 815.97 56.6269 816.13L56.2069 816.79C55.7135 816.61 55.2835 816.35 54.9169 816.01C54.5502 815.663 54.2635 815.263 54.0569 814.81C53.8569 814.357 53.7569 813.877 53.7569 813.37V812.65ZM51.5869 812.39H56.4169V813.07H51.5869V812.39Z" fill="black"/>
<path d="M104.252 103.012H105.068V104.956C105.068 105.556 104.992 106.144 104.84 106.72C104.696 107.296 104.488 107.836 104.216 108.34C103.944 108.844 103.624 109.292 103.256 109.684C102.888 110.076 102.488 110.388 102.056 110.62L101.444 109.816C101.844 109.616 102.212 109.348 102.548 109.012C102.892 108.668 103.192 108.276 103.448 107.836C103.704 107.396 103.9 106.932 104.036 106.444C104.18 105.948 104.252 105.452 104.252 104.956V103.012ZM104.432 103.012H105.236V104.956C105.236 105.436 105.304 105.912 105.44 106.384C105.584 106.856 105.784 107.3 106.04 107.716C106.296 108.132 106.588 108.504 106.916 108.832C107.252 109.16 107.612 109.42 107.996 109.612L107.384 110.404C106.96 110.188 106.568 109.892 106.208 109.516C105.856 109.14 105.544 108.712 105.272 108.232C105.008 107.744 104.8 107.224 104.648 106.672C104.504 106.112 104.432 105.54 104.432 104.956V103.012ZM108.944 102.076H109.94V112.936H108.944V102.076ZM109.712 106.468H111.716V107.32H109.712V106.468ZM115.051 105.76H116.047V107.8H115.051V105.76ZM119.035 105.76H120.019V107.8H119.035V105.76ZM112.639 107.44H122.443V108.244H112.639V107.44ZM117.535 109.072C118.695 109.072 119.603 109.236 120.259 109.564C120.915 109.892 121.243 110.364 121.243 110.98C121.243 111.604 120.915 112.08 120.259 112.408C119.603 112.744 118.695 112.912 117.535 112.912C116.375 112.912 115.463 112.744 114.799 112.408C114.143 112.08 113.815 111.604 113.815 110.98C113.815 110.364 114.143 109.892 114.799 109.564C115.463 109.236 116.375 109.072 117.535 109.072ZM117.535 109.84C116.967 109.84 116.479 109.884 116.071 109.972C115.671 110.06 115.363 110.192 115.147 110.368C114.931 110.536 114.823 110.74 114.823 110.98C114.823 111.236 114.931 111.452 115.147 111.628C115.363 111.796 115.671 111.924 116.071 112.012C116.479 112.1 116.967 112.144 117.535 112.144C118.103 112.144 118.587 112.1 118.987 112.012C119.395 111.924 119.707 111.796 119.923 111.628C120.139 111.452 120.247 111.236 120.247 110.98C120.247 110.74 120.139 110.536 119.923 110.368C119.707 110.192 119.395 110.06 118.987 109.972C118.587 109.884 118.103 109.84 117.535 109.84ZM117.535 102.28C118.319 102.28 118.995 102.36 119.563 102.52C120.139 102.68 120.579 102.912 120.883 103.216C121.195 103.512 121.351 103.872 121.351 104.296C121.351 104.712 121.195 105.072 120.883 105.376C120.579 105.68 120.139 105.912 119.563 106.072C118.995 106.224 118.319 106.3 117.535 106.3C116.751 106.3 116.071 106.224 115.495 106.072C114.927 105.912 114.487 105.68 114.175 105.376C113.871 105.072 113.719 104.712 113.719 104.296C113.719 103.872 113.871 103.512 114.175 103.216C114.487 102.912 114.927 102.68 115.495 102.52C116.071 102.36 116.751 102.28 117.535 102.28ZM117.535 103.06C116.967 103.06 116.471 103.108 116.047 103.204C115.631 103.3 115.307 103.44 115.075 103.624C114.851 103.808 114.739 104.032 114.739 104.296C114.739 104.552 114.851 104.776 115.075 104.968C115.307 105.152 115.631 105.292 116.047 105.388C116.471 105.484 116.967 105.532 117.535 105.532C118.119 105.532 118.619 105.484 119.035 105.388C119.451 105.292 119.771 105.152 119.995 104.968C120.219 104.776 120.331 104.552 120.331 104.296C120.331 104.032 120.219 103.808 119.995 103.624C119.771 103.44 119.451 103.3 119.035 103.204C118.619 103.108 118.119 103.06 117.535 103.06ZM126.354 103.636H127.158V105.388C127.158 105.956 127.078 106.52 126.918 107.08C126.758 107.632 126.534 108.156 126.246 108.652C125.966 109.14 125.642 109.576 125.274 109.96C124.906 110.336 124.51 110.632 124.086 110.848L123.498 110.056C123.89 109.864 124.254 109.604 124.59 109.276C124.934 108.94 125.238 108.56 125.502 108.136C125.766 107.704 125.974 107.256 126.126 106.792C126.278 106.32 126.354 105.852 126.354 105.388V103.636ZM126.546 103.636H127.338V105.388C127.338 105.82 127.406 106.256 127.542 106.696C127.686 107.136 127.886 107.556 128.142 107.956C128.398 108.356 128.694 108.716 129.03 109.036C129.374 109.348 129.738 109.6 130.122 109.792L129.558 110.584C129.134 110.368 128.738 110.08 128.37 109.72C128.002 109.352 127.682 108.936 127.41 108.472C127.138 108.008 126.926 107.512 126.774 106.984C126.622 106.456 126.546 105.924 126.546 105.388V103.636ZM123.882 103.192H129.738V104.02H123.882V103.192ZM131.022 102.076H132.018V112.936H131.022V102.076ZM131.79 106.456H133.794V107.296H131.79V106.456ZM135.305 102.916H140.105V103.744H135.305V102.916ZM136.937 105.34H137.921V108.052H136.937V105.34ZM139.709 102.916H140.681V103.492C140.681 103.852 140.669 104.3 140.645 104.836C140.629 105.372 140.549 105.996 140.405 106.708L139.421 106.612C139.565 105.892 139.649 105.28 139.673 104.776C139.697 104.272 139.709 103.844 139.709 103.492V102.916ZM142.157 102.076H143.165V110.248H142.157V102.076ZM142.709 105.604H144.713V106.444H142.709V105.604ZM136.301 111.88H143.513V112.696H136.301V111.88ZM136.301 109.504H137.297V112.12H136.301V109.504ZM134.753 108.52L134.645 107.704C135.285 107.704 135.993 107.696 136.769 107.68C137.545 107.664 138.333 107.632 139.133 107.584C139.933 107.528 140.701 107.452 141.437 107.356L141.497 108.088C140.753 108.216 139.981 108.312 139.181 108.376C138.381 108.44 137.601 108.48 136.841 108.496C136.089 108.512 135.393 108.52 134.753 108.52ZM153.664 102.076H154.648V112.948H153.664V102.076ZM146.38 109.492H147.28C147.896 109.492 148.488 109.484 149.056 109.468C149.632 109.444 150.212 109.404 150.796 109.348C151.388 109.292 152.004 109.212 152.644 109.108L152.74 109.924C151.764 110.084 150.844 110.192 149.98 110.248C149.116 110.296 148.216 110.32 147.28 110.32H146.38V109.492ZM146.356 103.084H151.372V106.96H147.388V109.804H146.38V106.156H150.364V103.9H146.356V103.084Z" fill="black"/>
<path d="M109.868 149.076H110.828V159.936H109.868V149.076ZM108.14 153.444H110.228V154.272H108.14V153.444ZM107.504 149.316H108.452V159.372H107.504V149.316ZM101.708 150.444H106.724V151.26H101.708V150.444ZM101.6 157.26L101.48 156.42C101.84 156.42 102.244 156.42 102.692 156.42C103.148 156.412 103.62 156.4 104.108 156.384C104.604 156.36 105.092 156.332 105.572 156.3C106.06 156.26 106.512 156.212 106.928 156.156L106.988 156.888C106.428 156.992 105.816 157.072 105.152 157.128C104.496 157.184 103.86 157.22 103.244 157.236C102.628 157.252 102.08 157.26 101.6 157.26ZM102.632 150.972H103.544V156.648H102.632V150.972ZM104.888 150.972H105.8V156.648H104.888V150.972ZM116.983 149.82H117.859V150.66C117.859 151.132 117.775 151.58 117.607 152.004C117.447 152.428 117.223 152.824 116.935 153.192C116.655 153.552 116.327 153.876 115.951 154.164C115.583 154.452 115.187 154.696 114.763 154.896C114.347 155.096 113.923 155.248 113.491 155.352L113.047 154.524C113.423 154.444 113.799 154.32 114.175 154.152C114.559 153.984 114.919 153.78 115.255 153.54C115.591 153.292 115.887 153.016 116.143 152.712C116.407 152.408 116.611 152.084 116.755 151.74C116.907 151.388 116.983 151.028 116.983 150.66V149.82ZM117.175 149.82H118.027V150.66C118.027 151.028 118.103 151.388 118.255 151.74C118.407 152.084 118.611 152.408 118.867 152.712C119.131 153.016 119.431 153.292 119.767 153.54C120.103 153.78 120.459 153.988 120.835 154.164C121.219 154.332 121.603 154.452 121.987 154.524L121.531 155.352C121.099 155.248 120.675 155.096 120.259 154.896C119.843 154.696 119.447 154.452 119.071 154.164C118.703 153.876 118.375 153.552 118.087 153.192C117.799 152.824 117.575 152.428 117.415 152.004C117.255 151.58 117.175 151.132 117.175 150.66V149.82ZM112.639 157.644H122.479V158.472H112.639V157.644ZM126.618 155.136H127.614V159.6H126.618V155.136ZM131.586 149.088H132.594V159.936H131.586V149.088ZM123.762 155.628L123.63 154.788C124.318 154.788 125.062 154.784 125.862 154.776C126.67 154.76 127.494 154.728 128.334 154.68C129.174 154.632 129.986 154.552 130.77 154.44L130.83 155.184C130.022 155.32 129.202 155.42 128.37 155.484C127.538 155.548 126.73 155.588 125.946 155.604C125.162 155.62 124.434 155.628 123.762 155.628ZM129.138 156.492H131.85V157.272H129.138V156.492ZM127.17 149.616C127.706 149.616 128.178 149.708 128.586 149.892C128.994 150.068 129.314 150.316 129.546 150.636C129.778 150.948 129.894 151.32 129.894 151.752C129.894 152.184 129.778 152.56 129.546 152.88C129.314 153.2 128.994 153.448 128.586 153.624C128.178 153.8 127.706 153.888 127.17 153.888C126.642 153.888 126.17 153.8 125.754 153.624C125.346 153.448 125.026 153.2 124.794 152.88C124.562 152.56 124.446 152.184 124.446 151.752C124.446 151.32 124.562 150.948 124.794 150.636C125.026 150.316 125.346 150.068 125.754 149.892C126.17 149.708 126.642 149.616 127.17 149.616ZM127.17 150.384C126.818 150.384 126.506 150.444 126.234 150.564C125.97 150.676 125.762 150.836 125.61 151.044C125.458 151.252 125.382 151.488 125.382 151.752C125.382 152.024 125.458 152.264 125.61 152.472C125.762 152.68 125.97 152.84 126.234 152.952C126.506 153.064 126.818 153.12 127.17 153.12C127.522 153.12 127.83 153.064 128.094 152.952C128.358 152.84 128.566 152.68 128.718 152.472C128.87 152.264 128.946 152.024 128.946 151.752C128.946 151.488 128.87 151.252 128.718 151.044C128.566 150.836 128.358 150.676 128.094 150.564C127.83 150.444 127.522 150.384 127.17 150.384ZM135.965 154.284H143.417V155.1H135.965V154.284ZM134.717 157.632H144.557V158.46H134.717V157.632ZM135.965 150.084H143.309V150.9H136.949V154.644H135.965V150.084ZM154.927 151.896H157.363V152.724H154.927V151.896ZM157.063 149.076H158.059V155.544H157.063V149.076ZM154.483 155.88C155.235 155.88 155.879 155.96 156.415 156.12C156.959 156.28 157.375 156.512 157.663 156.816C157.951 157.112 158.095 157.476 158.095 157.908C158.095 158.548 157.771 159.044 157.123 159.396C156.483 159.748 155.603 159.924 154.483 159.924C153.363 159.924 152.479 159.748 151.831 159.396C151.191 159.044 150.871 158.548 150.871 157.908C150.871 157.476 151.015 157.112 151.303 156.816C151.599 156.512 152.015 156.28 152.551 156.12C153.095 155.96 153.739 155.88 154.483 155.88ZM154.483 156.66C153.939 156.66 153.471 156.708 153.079 156.804C152.687 156.9 152.383 157.04 152.167 157.224C151.959 157.408 151.855 157.636 151.855 157.908C151.855 158.164 151.959 158.384 152.167 158.568C152.383 158.752 152.687 158.896 153.079 159C153.471 159.096 153.939 159.144 154.483 159.144C155.035 159.144 155.503 159.096 155.887 159C156.279 158.896 156.579 158.752 156.787 158.568C157.003 158.384 157.111 158.164 157.111 157.908C157.111 157.636 157.003 157.408 156.787 157.224C156.579 157.04 156.279 156.9 155.887 156.804C155.503 156.708 155.035 156.66 154.483 156.66ZM151.891 150.18H152.707V151.056C152.707 151.72 152.579 152.344 152.323 152.928C152.075 153.504 151.723 154.012 151.267 154.452C150.811 154.884 150.283 155.216 149.683 155.448L149.167 154.656C149.575 154.512 149.943 154.316 150.271 154.068C150.607 153.82 150.895 153.536 151.135 153.216C151.383 152.896 151.571 152.552 151.699 152.184C151.827 151.816 151.891 151.44 151.891 151.056V150.18ZM152.083 150.18H152.899V151.044C152.899 151.508 153.007 151.96 153.223 152.4C153.439 152.84 153.747 153.228 154.147 153.564C154.547 153.9 155.007 154.164 155.527 154.356L155.023 155.148C154.431 154.932 153.915 154.62 153.475 154.212C153.035 153.796 152.691 153.316 152.443 152.772C152.203 152.228 152.083 151.652 152.083 151.044V150.18ZM149.479 149.868H155.275V150.684H149.479V149.868ZM162.426 151.068H163.194V151.428C163.194 152.004 163.098 152.556 162.906 153.084C162.714 153.604 162.434 154.068 162.066 154.476C161.706 154.876 161.262 155.188 160.734 155.412L160.254 154.668C160.71 154.476 161.098 154.216 161.418 153.888C161.746 153.552 161.994 153.172 162.162 152.748C162.338 152.324 162.426 151.884 162.426 151.428V151.068ZM162.618 151.068H163.374V151.428C163.374 151.852 163.462 152.264 163.638 152.664C163.814 153.064 164.066 153.42 164.394 153.732C164.722 154.044 165.11 154.288 165.558 154.464L165.09 155.22C164.562 155.004 164.114 154.704 163.746 154.32C163.378 153.936 163.098 153.496 162.906 153C162.714 152.504 162.618 151.98 162.618 151.428V151.068ZM160.47 150.504H165.294V151.308H160.47V150.504ZM162.426 149.208H163.374V150.84H162.426V149.208ZM168.366 149.088H169.314V155.736H168.366V149.088ZM166.614 151.98H168.654V152.796H166.614V151.98ZM166.05 149.28H166.998V155.676H166.05V149.28ZM162.042 156.312H169.314V159.936H168.33V157.128H162.042V156.312Z" fill="white"/>
<path d="M1440 64H272V900H1440V64Z" fill="#F4F5F7"/>
<path d="M389 114H300V159H389V114Z" fill="#E0E0E0"/>
<path d="M389 114H300V159H389V114Z" fill="#E0E0E0"/>
<path d="M318.252 132.012H319.068V133.956C319.068 134.556 318.992 135.144 318.84 135.72C318.696 136.296 318.488 136.836 318.216 137.34C317.944 137.844 317.624 138.292 317.256 138.684C316.888 139.076 316.488 139.388 316.056 139.62L315.444 138.816C315.844 138.616 316.212 138.348 316.548 138.012C316.892 137.668 317.192 137.276 317.448 136.836C317.704 136.396 317.9 135.932 318.036 135.444C318.18 134.948 318.252 134.452 318.252 133.956V132.012ZM318.432 132.012H319.236V133.956C319.236 134.436 319.304 134.912 319.44 135.384C319.584 135.856 319.784 136.3 320.04 136.716C320.296 137.132 320.588 137.504 320.916 137.832C321.252 138.16 321.612 138.42 321.996 138.612L321.384 139.404C320.96 139.188 320.568 138.892 320.208 138.516C319.856 138.14 319.544 137.712 319.272 137.232C319.008 136.744 318.8 136.224 318.648 135.672C318.504 135.112 318.432 134.54 318.432 133.956V132.012ZM322.944 131.076H323.94V141.936H322.944V131.076ZM323.712 135.468H325.716V136.32H323.712V135.468ZM329.051 134.76H330.047V136.8H329.051V134.76ZM333.035 134.76H334.019V136.8H333.035V134.76ZM326.639 136.44H336.443V137.244H326.639V136.44ZM331.535 138.072C332.695 138.072 333.603 138.236 334.259 138.564C334.915 138.892 335.243 139.364 335.243 139.98C335.243 140.604 334.915 141.08 334.259 141.408C333.603 141.744 332.695 141.912 331.535 141.912C330.375 141.912 329.463 141.744 328.799 141.408C328.143 141.08 327.815 140.604 327.815 139.98C327.815 139.364 328.143 138.892 328.799 138.564C329.463 138.236 330.375 138.072 331.535 138.072ZM331.535 138.84C330.967 138.84 330.479 138.884 330.071 138.972C329.671 139.06 329.363 139.192 329.147 139.368C328.931 139.536 328.823 139.74 328.823 139.98C328.823 140.236 328.931 140.452 329.147 140.628C329.363 140.796 329.671 140.924 330.071 141.012C330.479 141.1 330.967 141.144 331.535 141.144C332.103 141.144 332.587 141.1 332.987 141.012C333.395 140.924 333.707 140.796 333.923 140.628C334.139 140.452 334.247 140.236 334.247 139.98C334.247 139.74 334.139 139.536 333.923 139.368C333.707 139.192 333.395 139.06 332.987 138.972C332.587 138.884 332.103 138.84 331.535 138.84ZM331.535 131.28C332.319 131.28 332.995 131.36 333.563 131.52C334.139 131.68 334.579 131.912 334.883 132.216C335.195 132.512 335.351 132.872 335.351 133.296C335.351 133.712 335.195 134.072 334.883 134.376C334.579 134.68 334.139 134.912 333.563 135.072C332.995 135.224 332.319 135.3 331.535 135.3C330.751 135.3 330.071 135.224 329.495 135.072C328.927 134.912 328.487 134.68 328.175 134.376C327.871 134.072 327.719 133.712 327.719 133.296C327.719 132.872 327.871 132.512 328.175 132.216C328.487 131.912 328.927 131.68 329.495 131.52C330.071 131.36 330.751 131.28 331.535 131.28ZM331.535 132.06C330.967 132.06 330.471 132.108 330.047 132.204C329.631 132.3 329.307 132.44 329.075 132.624C328.851 132.808 328.739 133.032 328.739 133.296C328.739 133.552 328.851 133.776 329.075 133.968C329.307 134.152 329.631 134.292 330.047 134.388C330.471 134.484 330.967 134.532 331.535 134.532C332.119 134.532 332.619 134.484 333.035 134.388C333.451 134.292 333.771 134.152 333.995 133.968C334.219 133.776 334.331 133.552 334.331 133.296C334.331 133.032 334.219 132.808 333.995 132.624C333.771 132.44 333.451 132.3 333.035 132.204C332.619 132.108 332.119 132.06 331.535 132.06ZM340.354 132.636H341.158V134.388C341.158 134.956 341.078 135.52 340.918 136.08C340.758 136.632 340.534 137.156 340.246 137.652C339.966 138.14 339.642 138.576 339.274 138.96C338.906 139.336 338.51 139.632 338.086 139.848L337.498 139.056C337.89 138.864 338.254 138.604 338.59 138.276C338.934 137.94 339.238 137.56 339.502 137.136C339.766 136.704 339.974 136.256 340.126 135.792C340.278 135.32 340.354 134.852 340.354 134.388V132.636ZM340.546 132.636H341.338V134.388C341.338 134.82 341.406 135.256 341.542 135.696C341.686 136.136 341.886 136.556 342.142 136.956C342.398 137.356 342.694 137.716 343.03 138.036C343.374 138.348 343.738 138.6 344.122 138.792L343.558 139.584C343.134 139.368 342.738 139.08 342.37 138.72C342.002 138.352 341.682 137.936 341.41 137.472C341.138 137.008 340.926 136.512 340.774 135.984C340.622 135.456 340.546 134.924 340.546 134.388V132.636ZM337.882 132.192H343.738V133.02H337.882V132.192ZM345.022 131.076H346.018V141.936H345.022V131.076ZM345.79 135.456H347.794V136.296H345.79V135.456ZM349.305 131.916H354.105V132.744H349.305V131.916ZM350.937 134.34H351.921V137.052H350.937V134.34ZM353.709 131.916H354.681V132.492C354.681 132.852 354.669 133.3 354.645 133.836C354.629 134.372 354.549 134.996 354.405 135.708L353.421 135.612C353.565 134.892 353.649 134.28 353.673 133.776C353.697 133.272 353.709 132.844 353.709 132.492V131.916ZM356.157 131.076H357.165V139.248H356.157V131.076ZM356.709 134.604H358.713V135.444H356.709V134.604ZM350.301 140.88H357.513V141.696H350.301V140.88ZM350.301 138.504H351.297V141.12H350.301V138.504ZM348.753 137.52L348.645 136.704C349.285 136.704 349.993 136.696 350.769 136.68C351.545 136.664 352.333 136.632 353.133 136.584C353.933 136.528 354.701 136.452 355.437 136.356L355.497 137.088C354.753 137.216 353.981 137.312 353.181 137.376C352.381 137.44 351.601 137.48 350.841 137.496C350.089 137.512 349.393 137.52 348.753 137.52ZM367.664 131.076H368.648V141.948H367.664V131.076ZM360.38 138.492H361.28C361.896 138.492 362.488 138.484 363.056 138.468C363.632 138.444 364.212 138.404 364.796 138.348C365.388 138.292 366.004 138.212 366.644 138.108L366.74 138.924C365.764 139.084 364.844 139.192 363.98 139.248C363.116 139.296 362.216 139.32 361.28 139.32H360.38V138.492ZM360.356 132.084H365.372V135.96H361.388V138.804H360.38V135.156H364.364V132.9H360.356V132.084Z" fill="black"/>
<path d="M414.868 131.076H415.828V141.936H414.868V131.076ZM413.14 135.444H415.228V136.272H413.14V135.444ZM412.504 131.316H413.452V141.372H412.504V131.316ZM406.708 132.444H411.724V133.26H406.708V132.444ZM406.6 139.26L406.48 138.42C406.84 138.42 407.244 138.42 407.692 138.42C408.148 138.412 408.62 138.4 409.108 138.384C409.604 138.36 410.092 138.332 410.572 138.3C411.06 138.26 411.512 138.212 411.928 138.156L411.988 138.888C411.428 138.992 410.816 139.072 410.152 139.128C409.496 139.184 408.86 139.22 408.244 139.236C407.628 139.252 407.08 139.26 406.6 139.26ZM407.632 132.972H408.544V138.648H407.632V132.972ZM409.888 132.972H410.8V138.648H409.888V132.972ZM421.983 131.82H422.859V132.66C422.859 133.132 422.775 133.58 422.607 134.004C422.447 134.428 422.223 134.824 421.935 135.192C421.655 135.552 421.327 135.876 420.951 136.164C420.583 136.452 420.187 136.696 419.763 136.896C419.347 137.096 418.923 137.248 418.491 137.352L418.047 136.524C418.423 136.444 418.799 136.32 419.175 136.152C419.559 135.984 419.919 135.78 420.255 135.54C420.591 135.292 420.887 135.016 421.143 134.712C421.407 134.408 421.611 134.084 421.755 133.74C421.907 133.388 421.983 133.028 421.983 132.66V131.82ZM422.175 131.82H423.027V132.66C423.027 133.028 423.103 133.388 423.255 133.74C423.407 134.084 423.611 134.408 423.867 134.712C424.131 135.016 424.431 135.292 424.767 135.54C425.103 135.78 425.459 135.988 425.835 136.164C426.219 136.332 426.603 136.452 426.987 136.524L426.531 137.352C426.099 137.248 425.675 137.096 425.259 136.896C424.843 136.696 424.447 136.452 424.071 136.164C423.703 135.876 423.375 135.552 423.087 135.192C422.799 134.824 422.575 134.428 422.415 134.004C422.255 133.58 422.175 133.132 422.175 132.66V131.82ZM417.639 139.644H427.479V140.472H417.639V139.644ZM431.618 137.136H432.614V141.6H431.618V137.136ZM436.586 131.088H437.594V141.936H436.586V131.088ZM428.762 137.628L428.63 136.788C429.318 136.788 430.062 136.784 430.862 136.776C431.67 136.76 432.494 136.728 433.334 136.68C434.174 136.632 434.986 136.552 435.77 136.44L435.83 137.184C435.022 137.32 434.202 137.42 433.37 137.484C432.538 137.548 431.73 137.588 430.946 137.604C430.162 137.62 429.434 137.628 428.762 137.628ZM434.138 138.492H436.85V139.272H434.138V138.492ZM432.17 131.616C432.706 131.616 433.178 131.708 433.586 131.892C433.994 132.068 434.314 132.316 434.546 132.636C434.778 132.948 434.894 133.32 434.894 133.752C434.894 134.184 434.778 134.56 434.546 134.88C434.314 135.2 433.994 135.448 433.586 135.624C433.178 135.8 432.706 135.888 432.17 135.888C431.642 135.888 431.17 135.8 430.754 135.624C430.346 135.448 430.026 135.2 429.794 134.88C429.562 134.56 429.446 134.184 429.446 133.752C429.446 133.32 429.562 132.948 429.794 132.636C430.026 132.316 430.346 132.068 430.754 131.892C431.17 131.708 431.642 131.616 432.17 131.616ZM432.17 132.384C431.818 132.384 431.506 132.444 431.234 132.564C430.97 132.676 430.762 132.836 430.61 133.044C430.458 133.252 430.382 133.488 430.382 133.752C430.382 134.024 430.458 134.264 430.61 134.472C430.762 134.68 430.97 134.84 431.234 134.952C431.506 135.064 431.818 135.12 432.17 135.12C432.522 135.12 432.83 135.064 433.094 134.952C433.358 134.84 433.566 134.68 433.718 134.472C433.87 134.264 433.946 134.024 433.946 133.752C433.946 133.488 433.87 133.252 433.718 133.044C433.566 132.836 433.358 132.676 433.094 132.564C432.83 132.444 432.522 132.384 432.17 132.384ZM440.965 136.284H448.417V137.1H440.965V136.284ZM439.717 139.632H449.557V140.46H439.717V139.632ZM440.965 132.084H448.309V132.9H441.949V136.644H440.965V132.084ZM459.927 133.896H462.363V134.724H459.927V133.896ZM462.063 131.076H463.059V137.544H462.063V131.076ZM459.483 137.88C460.235 137.88 460.879 137.96 461.415 138.12C461.959 138.28 462.375 138.512 462.663 138.816C462.951 139.112 463.095 139.476 463.095 139.908C463.095 140.548 462.771 141.044 462.123 141.396C461.483 141.748 460.603 141.924 459.483 141.924C458.363 141.924 457.479 141.748 456.831 141.396C456.191 141.044 455.871 140.548 455.871 139.908C455.871 139.476 456.015 139.112 456.303 138.816C456.599 138.512 457.015 138.28 457.551 138.12C458.095 137.96 458.739 137.88 459.483 137.88ZM459.483 138.66C458.939 138.66 458.471 138.708 458.079 138.804C457.687 138.9 457.383 139.04 457.167 139.224C456.959 139.408 456.855 139.636 456.855 139.908C456.855 140.164 456.959 140.384 457.167 140.568C457.383 140.752 457.687 140.896 458.079 141C458.471 141.096 458.939 141.144 459.483 141.144C460.035 141.144 460.503 141.096 460.887 141C461.279 140.896 461.579 140.752 461.787 140.568C462.003 140.384 462.111 140.164 462.111 139.908C462.111 139.636 462.003 139.408 461.787 139.224C461.579 139.04 461.279 138.9 460.887 138.804C460.503 138.708 460.035 138.66 459.483 138.66ZM456.891 132.18H457.707V133.056C457.707 133.72 457.579 134.344 457.323 134.928C457.075 135.504 456.723 136.012 456.267 136.452C455.811 136.884 455.283 137.216 454.683 137.448L454.167 136.656C454.575 136.512 454.943 136.316 455.271 136.068C455.607 135.82 455.895 135.536 456.135 135.216C456.383 134.896 456.571 134.552 456.699 134.184C456.827 133.816 456.891 133.44 456.891 133.056V132.18ZM457.083 132.18H457.899V133.044C457.899 133.508 458.007 133.96 458.223 134.4C458.439 134.84 458.747 135.228 459.147 135.564C459.547 135.9 460.007 136.164 460.527 136.356L460.023 137.148C459.431 136.932 458.915 136.62 458.475 136.212C458.035 135.796 457.691 135.316 457.443 134.772C457.203 134.228 457.083 133.652 457.083 133.044V132.18ZM454.479 131.868H460.275V132.684H454.479V131.868ZM467.426 133.068H468.194V133.428C468.194 134.004 468.098 134.556 467.906 135.084C467.714 135.604 467.434 136.068 467.066 136.476C466.706 136.876 466.262 137.188 465.734 137.412L465.254 136.668C465.71 136.476 466.098 136.216 466.418 135.888C466.746 135.552 466.994 135.172 467.162 134.748C467.338 134.324 467.426 133.884 467.426 133.428V133.068ZM467.618 133.068H468.374V133.428C468.374 133.852 468.462 134.264 468.638 134.664C468.814 135.064 469.066 135.42 469.394 135.732C469.722 136.044 470.11 136.288 470.558 136.464L470.09 137.22C469.562 137.004 469.114 136.704 468.746 136.32C468.378 135.936 468.098 135.496 467.906 135C467.714 134.504 467.618 133.98 467.618 133.428V133.068ZM465.47 132.504H470.294V133.308H465.47V132.504ZM467.426 131.208H468.374V132.84H467.426V131.208ZM473.366 131.088H474.314V137.736H473.366V131.088ZM471.614 133.98H473.654V134.796H471.614V133.98ZM471.05 131.28H471.998V137.676H471.05V131.28ZM467.042 138.312H474.314V141.936H473.33V139.128H467.042V138.312Z" fill="black"/>
<path d="M1400 160H300V720H1400V160Z" fill="white"/>
<path d="M328.42 195.636C328.42 196.557 328.254 197.352 327.922 198.023C327.589 198.693 327.134 199.21 326.554 199.574C325.974 199.938 325.313 200.119 324.568 200.119C323.824 200.119 323.162 199.938 322.582 199.574C322.003 199.21 321.547 198.693 321.214 198.023C320.882 197.352 320.716 196.557 320.716 195.636C320.716 194.716 320.882 193.92 321.214 193.25C321.547 192.58 322.003 192.062 322.582 191.699C323.162 191.335 323.824 191.153 324.568 191.153C325.313 191.153 325.974 191.335 326.554 191.699C327.134 192.062 327.589 192.58 327.922 193.25C328.254 193.92 328.42 194.716 328.42 195.636ZM327.398 195.636C327.398 194.881 327.271 194.243 327.018 193.723C326.768 193.203 326.429 192.81 326 192.543C325.574 192.276 325.097 192.142 324.568 192.142C324.04 192.142 323.561 192.276 323.132 192.543C322.706 192.81 322.366 193.203 322.114 193.723C321.864 194.243 321.739 194.881 321.739 195.636C321.739 196.392 321.864 197.03 322.114 197.55C322.366 198.07 322.706 198.463 323.132 198.73C323.561 198.997 324.04 199.131 324.568 199.131C325.097 199.131 325.574 198.997 326 198.73C326.429 198.463 326.768 198.07 327.018 197.55C327.271 197.03 327.398 196.392 327.398 195.636ZM330.061 202.455V193.455H331.033V194.494H331.152C331.226 194.381 331.328 194.236 331.459 194.06C331.592 193.881 331.783 193.722 332.03 193.582C332.28 193.44 332.618 193.369 333.044 193.369C333.595 193.369 334.081 193.507 334.501 193.783C334.922 194.058 335.25 194.449 335.486 194.955C335.722 195.46 335.839 196.057 335.839 196.744C335.839 197.438 335.722 198.038 335.486 198.547C335.25 199.053 334.923 199.445 334.506 199.723C334.088 199.999 333.607 200.136 333.061 200.136C332.641 200.136 332.304 200.067 332.051 199.928C331.798 199.786 331.604 199.625 331.467 199.446C331.331 199.264 331.226 199.114 331.152 198.994H331.067V202.455H330.061ZM331.05 196.727C331.05 197.222 331.122 197.658 331.267 198.036C331.412 198.411 331.624 198.705 331.902 198.918C332.18 199.128 332.521 199.233 332.925 199.233C333.345 199.233 333.696 199.122 333.977 198.901C334.261 198.676 334.474 198.375 334.616 197.997C334.761 197.616 334.834 197.193 334.834 196.727C334.834 196.267 334.763 195.852 334.621 195.483C334.482 195.111 334.27 194.817 333.986 194.601C333.705 194.382 333.351 194.273 332.925 194.273C332.516 194.273 332.172 194.376 331.893 194.584C331.615 194.788 331.405 195.075 331.263 195.445C331.121 195.811 331.05 196.239 331.05 196.727ZM340.118 200.136C339.487 200.136 338.943 199.997 338.486 199.719C338.031 199.438 337.68 199.045 337.433 198.543C337.189 198.037 337.067 197.449 337.067 196.778C337.067 196.108 337.189 195.517 337.433 195.006C337.68 194.491 338.024 194.091 338.464 193.804C338.908 193.514 339.425 193.369 340.016 193.369C340.357 193.369 340.693 193.426 341.026 193.54C341.358 193.653 341.661 193.838 341.933 194.094C342.206 194.347 342.423 194.682 342.585 195.099C342.747 195.517 342.828 196.031 342.828 196.642V197.068H337.783V196.199H341.805C341.805 195.83 341.732 195.5 341.584 195.21C341.439 194.92 341.232 194.692 340.962 194.524C340.695 194.357 340.379 194.273 340.016 194.273C339.615 194.273 339.268 194.372 338.976 194.571C338.686 194.767 338.463 195.023 338.307 195.338C338.151 195.653 338.072 195.991 338.072 196.352V196.932C338.072 197.426 338.158 197.845 338.328 198.189C338.501 198.53 338.741 198.79 339.048 198.969C339.355 199.145 339.712 199.233 340.118 199.233C340.382 199.233 340.621 199.196 340.834 199.122C341.05 199.045 341.236 198.932 341.392 198.781C341.548 198.628 341.669 198.437 341.754 198.21L342.726 198.483C342.624 198.812 342.452 199.102 342.21 199.352C341.969 199.599 341.67 199.793 341.315 199.932C340.96 200.068 340.561 200.136 340.118 200.136ZM345.364 196.062V200H344.358V193.455H345.33V194.477H345.415C345.568 194.145 345.801 193.878 346.114 193.676C346.426 193.472 346.83 193.369 347.324 193.369C347.767 193.369 348.155 193.46 348.487 193.642C348.82 193.821 349.078 194.094 349.263 194.46C349.447 194.824 349.54 195.284 349.54 195.841V200H348.534V195.909C348.534 195.395 348.401 194.994 348.134 194.707C347.866 194.418 347.5 194.273 347.034 194.273C346.713 194.273 346.426 194.342 346.173 194.482C345.923 194.621 345.726 194.824 345.581 195.091C345.436 195.358 345.364 195.682 345.364 196.062ZM356.287 193.455C356.235 193.023 356.028 192.688 355.664 192.449C355.301 192.21 354.855 192.091 354.326 192.091C353.94 192.091 353.602 192.153 353.312 192.278C353.025 192.403 352.801 192.575 352.639 192.794C352.48 193.013 352.4 193.261 352.4 193.54C352.4 193.773 352.456 193.973 352.566 194.141C352.68 194.305 352.825 194.443 353.001 194.554C353.177 194.662 353.362 194.751 353.555 194.822C353.748 194.891 353.926 194.946 354.088 194.989L354.974 195.227C355.201 195.287 355.454 195.369 355.733 195.474C356.014 195.58 356.282 195.723 356.538 195.905C356.797 196.084 357.01 196.314 357.177 196.595C357.345 196.876 357.429 197.222 357.429 197.631C357.429 198.102 357.305 198.528 357.058 198.909C356.814 199.29 356.456 199.592 355.984 199.817C355.515 200.041 354.946 200.153 354.275 200.153C353.65 200.153 353.109 200.053 352.652 199.851C352.197 199.649 351.839 199.368 351.578 199.007C351.319 198.646 351.173 198.227 351.139 197.75H352.23C352.258 198.08 352.369 198.352 352.562 198.568C352.758 198.781 353.005 198.94 353.304 199.045C353.605 199.148 353.929 199.199 354.275 199.199C354.679 199.199 355.041 199.134 355.362 199.003C355.683 198.869 355.937 198.685 356.125 198.449C356.312 198.21 356.406 197.932 356.406 197.614C356.406 197.324 356.325 197.088 356.163 196.906C356.001 196.724 355.788 196.577 355.524 196.463C355.26 196.349 354.974 196.25 354.667 196.165L353.593 195.858C352.912 195.662 352.372 195.382 351.974 195.018C351.576 194.655 351.377 194.179 351.377 193.591C351.377 193.102 351.51 192.676 351.774 192.312C352.041 191.946 352.399 191.662 352.848 191.46C353.299 191.256 353.804 191.153 354.36 191.153C354.923 191.153 355.423 191.254 355.86 191.456C356.298 191.655 356.645 191.928 356.9 192.274C357.159 192.621 357.295 193.014 357.309 193.455H356.287ZM361.774 200.136C361.143 200.136 360.599 199.997 360.142 199.719C359.688 199.438 359.337 199.045 359.089 198.543C358.845 198.037 358.723 197.449 358.723 196.778C358.723 196.108 358.845 195.517 359.089 195.006C359.337 194.491 359.68 194.091 360.121 193.804C360.564 193.514 361.081 193.369 361.672 193.369C362.013 193.369 362.349 193.426 362.682 193.54C363.014 193.653 363.317 193.838 363.589 194.094C363.862 194.347 364.08 194.682 364.241 195.099C364.403 195.517 364.484 196.031 364.484 196.642V197.068H359.439V196.199H363.462C363.462 195.83 363.388 195.5 363.24 195.21C363.095 194.92 362.888 194.692 362.618 194.524C362.351 194.357 362.036 194.273 361.672 194.273C361.271 194.273 360.925 194.372 360.632 194.571C360.342 194.767 360.119 195.023 359.963 195.338C359.807 195.653 359.729 195.991 359.729 196.352V196.932C359.729 197.426 359.814 197.845 359.984 198.189C360.158 198.53 360.398 198.79 360.705 198.969C361.011 199.145 361.368 199.233 361.774 199.233C362.038 199.233 362.277 199.196 362.49 199.122C362.706 199.045 362.892 198.932 363.048 198.781C363.205 198.628 363.325 198.437 363.411 198.21L364.382 198.483C364.28 198.812 364.108 199.102 363.866 199.352C363.625 199.599 363.327 199.793 362.972 199.932C362.616 200.068 362.217 200.136 361.774 200.136ZM367.94 200.153C367.526 200.153 367.149 200.075 366.811 199.919C366.473 199.76 366.205 199.531 366.006 199.233C365.807 198.932 365.707 198.568 365.707 198.142C365.707 197.767 365.781 197.463 365.929 197.23C366.077 196.994 366.274 196.81 366.521 196.676C366.768 196.543 367.041 196.443 367.339 196.378C367.641 196.31 367.943 196.256 368.247 196.216C368.645 196.165 368.967 196.126 369.214 196.101C369.464 196.072 369.646 196.026 369.76 195.96C369.876 195.895 369.935 195.781 369.935 195.619V195.585C369.935 195.165 369.82 194.838 369.589 194.605C369.362 194.372 369.017 194.256 368.554 194.256C368.074 194.256 367.697 194.361 367.425 194.571C367.152 194.781 366.96 195.006 366.849 195.244L365.895 194.903C366.065 194.506 366.293 194.196 366.577 193.974C366.864 193.75 367.176 193.594 367.514 193.506C367.855 193.415 368.19 193.369 368.52 193.369C368.73 193.369 368.972 193.395 369.244 193.446C369.52 193.494 369.786 193.595 370.041 193.749C370.3 193.902 370.514 194.134 370.685 194.443C370.855 194.753 370.94 195.168 370.94 195.688V200H369.935V199.114H369.884C369.815 199.256 369.702 199.408 369.543 199.57C369.384 199.732 369.172 199.869 368.908 199.983C368.643 200.097 368.321 200.153 367.94 200.153ZM368.094 199.25C368.491 199.25 368.827 199.172 369.099 199.016C369.375 198.859 369.582 198.658 369.722 198.411C369.864 198.163 369.935 197.903 369.935 197.631V196.71C369.892 196.761 369.798 196.808 369.653 196.851C369.511 196.891 369.347 196.926 369.159 196.957C368.974 196.986 368.794 197.011 368.618 197.034C368.445 197.054 368.304 197.071 368.196 197.085C367.935 197.119 367.69 197.175 367.463 197.251C367.239 197.325 367.057 197.437 366.918 197.588C366.781 197.736 366.713 197.937 366.713 198.193C366.713 198.543 366.842 198.807 367.101 198.986C367.362 199.162 367.693 199.25 368.094 199.25ZM372.776 200V193.455H373.748V194.443H373.816C373.935 194.119 374.151 193.857 374.463 193.655C374.776 193.453 375.128 193.352 375.52 193.352C375.594 193.352 375.686 193.354 375.797 193.357C375.908 193.359 375.992 193.364 376.049 193.369V194.392C376.015 194.384 375.936 194.371 375.814 194.354C375.695 194.334 375.569 194.324 375.435 194.324C375.117 194.324 374.833 194.391 374.583 194.524C374.336 194.655 374.14 194.837 373.995 195.07C373.853 195.3 373.782 195.562 373.782 195.858V200H372.776ZM379.701 200.136C379.087 200.136 378.559 199.991 378.115 199.702C377.672 199.412 377.331 199.013 377.093 198.504C376.854 197.996 376.735 197.415 376.735 196.761C376.735 196.097 376.857 195.51 377.101 195.001C377.348 194.49 377.692 194.091 378.132 193.804C378.576 193.514 379.093 193.369 379.684 193.369C380.144 193.369 380.559 193.455 380.928 193.625C381.297 193.795 381.6 194.034 381.836 194.341C382.071 194.648 382.218 195.006 382.275 195.415H381.269C381.192 195.116 381.022 194.852 380.757 194.622C380.496 194.389 380.144 194.273 379.701 194.273C379.309 194.273 378.965 194.375 378.669 194.58C378.377 194.781 378.148 195.067 377.983 195.436C377.821 195.803 377.74 196.233 377.74 196.727C377.74 197.233 377.82 197.673 377.979 198.048C378.141 198.423 378.368 198.714 378.661 198.922C378.956 199.129 379.303 199.233 379.701 199.233C379.962 199.233 380.199 199.188 380.412 199.097C380.625 199.006 380.806 198.875 380.953 198.705C381.101 198.534 381.206 198.33 381.269 198.091H382.275C382.218 198.477 382.077 198.825 381.853 199.135C381.631 199.442 381.337 199.686 380.971 199.868C380.607 200.047 380.184 200.136 379.701 200.136ZM384.75 196.062V200H383.745V191.273H384.75V194.477H384.836C384.989 194.139 385.219 193.871 385.526 193.672C385.836 193.47 386.248 193.369 386.762 193.369C387.208 193.369 387.598 193.459 387.934 193.638C388.269 193.814 388.529 194.085 388.713 194.452C388.901 194.815 388.995 195.278 388.995 195.841V200H387.989V195.909C387.989 195.389 387.854 194.987 387.584 194.703C387.317 194.416 386.946 194.273 386.472 194.273C386.142 194.273 385.847 194.342 385.586 194.482C385.327 194.621 385.123 194.824 384.972 195.091C384.824 195.358 384.75 195.682 384.75 196.062ZM400.073 191.273H401.13V197.051C401.13 197.648 400.989 198.18 400.708 198.649C400.43 199.115 400.036 199.483 399.528 199.753C399.019 200.02 398.423 200.153 397.738 200.153C397.053 200.153 396.457 200.02 395.948 199.753C395.44 199.483 395.045 199.115 394.763 198.649C394.485 198.18 394.346 197.648 394.346 197.051V191.273H395.403V196.966C395.403 197.392 395.496 197.771 395.684 198.104C395.871 198.433 396.138 198.693 396.485 198.884C396.835 199.071 397.252 199.165 397.738 199.165C398.224 199.165 398.641 199.071 398.991 198.884C399.34 198.693 399.607 198.433 399.792 198.104C399.979 197.771 400.073 197.392 400.073 196.966V191.273ZM407.74 194.92L406.837 195.176C406.78 195.026 406.696 194.879 406.586 194.737C406.478 194.592 406.33 194.473 406.142 194.379C405.955 194.286 405.715 194.239 405.422 194.239C405.022 194.239 404.688 194.331 404.421 194.516C404.157 194.697 404.025 194.929 404.025 195.21C404.025 195.46 404.115 195.658 404.297 195.803C404.479 195.947 404.763 196.068 405.15 196.165L406.121 196.403C406.706 196.545 407.142 196.763 407.429 197.055C407.716 197.345 407.86 197.719 407.86 198.176C407.86 198.551 407.752 198.886 407.536 199.182C407.323 199.477 407.025 199.71 406.641 199.881C406.257 200.051 405.811 200.136 405.303 200.136C404.635 200.136 404.083 199.991 403.645 199.702C403.208 199.412 402.931 198.989 402.814 198.432L403.769 198.193C403.86 198.545 404.032 198.81 404.284 198.986C404.54 199.162 404.874 199.25 405.286 199.25C405.755 199.25 406.127 199.151 406.402 198.952C406.681 198.75 406.82 198.509 406.82 198.227C406.82 198 406.74 197.81 406.581 197.656C406.422 197.5 406.178 197.384 405.848 197.307L404.757 197.051C404.158 196.909 403.718 196.689 403.436 196.391C403.158 196.089 403.019 195.713 403.019 195.261C403.019 194.892 403.123 194.565 403.33 194.281C403.54 193.997 403.826 193.774 404.186 193.612C404.55 193.45 404.962 193.369 405.422 193.369C406.07 193.369 406.578 193.511 406.948 193.795C407.32 194.08 407.584 194.455 407.74 194.92ZM412.118 200.136C411.487 200.136 410.943 199.997 410.486 199.719C410.031 199.438 409.68 199.045 409.433 198.543C409.189 198.037 409.067 197.449 409.067 196.778C409.067 196.108 409.189 195.517 409.433 195.006C409.68 194.491 410.024 194.091 410.464 193.804C410.908 193.514 411.425 193.369 412.016 193.369C412.357 193.369 412.693 193.426 413.026 193.54C413.358 193.653 413.661 193.838 413.933 194.094C414.206 194.347 414.423 194.682 414.585 195.099C414.747 195.517 414.828 196.031 414.828 196.642V197.068H409.783V196.199H413.805C413.805 195.83 413.732 195.5 413.584 195.21C413.439 194.92 413.232 194.692 412.962 194.524C412.695 194.357 412.379 194.273 412.016 194.273C411.615 194.273 411.268 194.372 410.976 194.571C410.686 194.767 410.463 195.023 410.307 195.338C410.151 195.653 410.072 195.991 410.072 196.352V196.932C410.072 197.426 410.158 197.845 410.328 198.189C410.501 198.53 410.741 198.79 411.048 198.969C411.355 199.145 411.712 199.233 412.118 199.233C412.382 199.233 412.621 199.196 412.834 199.122C413.05 199.045 413.236 198.932 413.392 198.781C413.548 198.628 413.669 198.437 413.754 198.21L414.726 198.483C414.624 198.812 414.452 199.102 414.21 199.352C413.969 199.599 413.67 199.793 413.315 199.932C412.96 200.068 412.561 200.136 412.118 200.136ZM416.358 200V193.455H417.33V194.443H417.398C417.517 194.119 417.733 193.857 418.045 193.655C418.358 193.453 418.71 193.352 419.102 193.352C419.176 193.352 419.268 193.354 419.379 193.357C419.49 193.359 419.574 193.364 419.631 193.369V194.392C419.597 194.384 419.518 194.371 419.396 194.354C419.277 194.334 419.151 194.324 419.017 194.324C418.699 194.324 418.415 194.391 418.165 194.524C417.918 194.655 417.722 194.837 417.577 195.07C417.435 195.3 417.364 195.562 417.364 195.858V200H416.358ZM424.334 200V191.273H425.391V199.062H429.448V200H424.334ZM430.948 200V193.455H431.953V200H430.948ZM431.459 192.364C431.263 192.364 431.094 192.297 430.952 192.163C430.813 192.03 430.743 191.869 430.743 191.682C430.743 191.494 430.813 191.334 430.952 191.2C431.094 191.067 431.263 191 431.459 191C431.655 191 431.823 191.067 431.962 191.2C432.104 191.334 432.175 191.494 432.175 191.682C432.175 191.869 432.104 192.03 431.962 192.163C431.823 192.297 431.655 192.364 431.459 192.364ZM438.432 194.92L437.528 195.176C437.472 195.026 437.388 194.879 437.277 194.737C437.169 194.592 437.021 194.473 436.834 194.379C436.646 194.286 436.406 194.239 436.114 194.239C435.713 194.239 435.379 194.331 435.112 194.516C434.848 194.697 434.716 194.929 434.716 195.21C434.716 195.46 434.807 195.658 434.989 195.803C435.17 195.947 435.455 196.068 435.841 196.165L436.812 196.403C437.398 196.545 437.834 196.763 438.121 197.055C438.408 197.345 438.551 197.719 438.551 198.176C438.551 198.551 438.443 198.886 438.227 199.182C438.014 199.477 437.716 199.71 437.332 199.881C436.949 200.051 436.503 200.136 435.994 200.136C435.327 200.136 434.774 199.991 434.337 199.702C433.899 199.412 433.622 198.989 433.506 198.432L434.46 198.193C434.551 198.545 434.723 198.81 434.976 198.986C435.232 199.162 435.565 199.25 435.977 199.25C436.446 199.25 436.818 199.151 437.094 198.952C437.372 198.75 437.511 198.509 437.511 198.227C437.511 198 437.432 197.81 437.273 197.656C437.114 197.5 436.869 197.384 436.54 197.307L435.449 197.051C434.849 196.909 434.409 196.689 434.128 196.391C433.849 196.089 433.71 195.713 433.71 195.261C433.71 194.892 433.814 194.565 434.021 194.281C434.232 193.997 434.517 193.774 434.878 193.612C435.241 193.45 435.653 193.369 436.114 193.369C436.761 193.369 437.27 193.511 437.639 193.795C438.011 194.08 438.276 194.455 438.432 194.92ZM442.912 193.455V194.307H439.52V193.455H442.912ZM440.508 191.886H441.514V198.125C441.514 198.409 441.555 198.622 441.637 198.764C441.723 198.903 441.831 198.997 441.961 199.045C442.095 199.091 442.235 199.114 442.383 199.114C442.494 199.114 442.585 199.108 442.656 199.097C442.727 199.082 442.784 199.071 442.826 199.062L443.031 199.966C442.963 199.991 442.868 200.017 442.745 200.043C442.623 200.071 442.468 200.085 442.281 200.085C441.997 200.085 441.718 200.024 441.446 199.902C441.176 199.78 440.951 199.594 440.772 199.344C440.596 199.094 440.508 198.778 440.508 198.398V191.886ZM448.157 195.636C448.157 194.562 448.297 193.575 448.575 192.675C448.856 191.771 449.257 190.94 449.777 190.182H450.663C450.458 190.463 450.267 190.81 450.088 191.222C449.912 191.631 449.757 192.081 449.623 192.572C449.49 193.061 449.385 193.567 449.308 194.089C449.234 194.612 449.197 195.128 449.197 195.636C449.197 196.312 449.262 196.999 449.393 197.695C449.524 198.391 449.7 199.037 449.922 199.634C450.143 200.23 450.39 200.716 450.663 201.091H449.777C449.257 200.332 448.856 199.503 448.575 198.602C448.297 197.699 448.157 196.71 448.157 195.636ZM452.641 200H451.533L454.738 191.273H455.829L459.033 200H457.925L455.317 192.653H455.249L452.641 200ZM453.05 196.591H457.516V197.528H453.05V196.591ZM462.728 200.136C462.183 200.136 461.701 199.999 461.283 199.723C460.866 199.445 460.539 199.053 460.303 198.547C460.067 198.038 459.95 197.438 459.95 196.744C459.95 196.057 460.067 195.46 460.303 194.955C460.539 194.449 460.867 194.058 461.288 193.783C461.708 193.507 462.194 193.369 462.745 193.369C463.171 193.369 463.508 193.44 463.755 193.582C464.005 193.722 464.195 193.881 464.326 194.06C464.46 194.236 464.563 194.381 464.637 194.494H464.722V191.273H465.728V200H464.756V198.994H464.637C464.563 199.114 464.458 199.264 464.322 199.446C464.185 199.625 463.991 199.786 463.738 199.928C463.485 200.067 463.148 200.136 462.728 200.136ZM462.864 199.233C463.268 199.233 463.609 199.128 463.887 198.918C464.165 198.705 464.377 198.411 464.522 198.036C464.667 197.658 464.739 197.222 464.739 196.727C464.739 196.239 464.668 195.811 464.526 195.445C464.384 195.075 464.174 194.788 463.896 194.584C463.617 194.376 463.273 194.273 462.864 194.273C462.438 194.273 462.083 194.382 461.799 194.601C461.518 194.817 461.306 195.111 461.164 195.483C461.025 195.852 460.955 196.267 460.955 196.727C460.955 197.193 461.026 197.616 461.168 197.997C461.313 198.375 461.526 198.676 461.808 198.901C462.092 199.122 462.444 199.233 462.864 199.233ZM467.71 200V193.455H468.681V194.477H468.766C468.903 194.128 469.123 193.857 469.427 193.663C469.731 193.467 470.096 193.369 470.522 193.369C470.954 193.369 471.313 193.467 471.6 193.663C471.89 193.857 472.116 194.128 472.278 194.477H472.346C472.513 194.139 472.765 193.871 473.1 193.672C473.435 193.47 473.837 193.369 474.306 193.369C474.891 193.369 475.37 193.553 475.742 193.919C476.114 194.283 476.3 194.849 476.3 195.619V200H475.295V195.619C475.295 195.136 475.163 194.791 474.898 194.584C474.634 194.376 474.323 194.273 473.965 194.273C473.505 194.273 473.148 194.412 472.896 194.69C472.643 194.966 472.516 195.315 472.516 195.739V200H471.494V195.517C471.494 195.145 471.373 194.845 471.131 194.618C470.89 194.388 470.579 194.273 470.198 194.273C469.937 194.273 469.692 194.342 469.465 194.482C469.241 194.621 469.059 194.814 468.92 195.061C468.783 195.305 468.715 195.588 468.715 195.909V200H467.71ZM478.139 200V193.455H479.145V200H478.139ZM478.651 192.364C478.455 192.364 478.286 192.297 478.143 192.163C478.004 192.03 477.935 191.869 477.935 191.682C477.935 191.494 478.004 191.334 478.143 191.2C478.286 191.067 478.455 191 478.651 191C478.847 191 479.014 191.067 479.153 191.2C479.295 191.334 479.366 191.494 479.366 191.682C479.366 191.869 479.295 192.03 479.153 192.163C479.014 192.297 478.847 192.364 478.651 192.364ZM481.993 196.062V200H480.987V193.455H481.958V194.477H482.044C482.197 194.145 482.43 193.878 482.743 193.676C483.055 193.472 483.458 193.369 483.953 193.369C484.396 193.369 484.784 193.46 485.116 193.642C485.449 193.821 485.707 194.094 485.892 194.46C486.076 194.824 486.169 195.284 486.169 195.841V200H485.163V195.909C485.163 195.395 485.029 194.994 484.762 194.707C484.495 194.418 484.129 194.273 483.663 194.273C483.342 194.273 483.055 194.342 482.802 194.482C482.552 194.621 482.355 194.824 482.21 195.091C482.065 195.358 481.993 195.682 481.993 196.062ZM493.853 200.136C493.308 200.136 492.826 199.999 492.408 199.723C491.991 199.445 491.664 199.053 491.428 198.547C491.192 198.038 491.075 197.438 491.075 196.744C491.075 196.057 491.192 195.46 491.428 194.955C491.664 194.449 491.992 194.058 492.413 193.783C492.833 193.507 493.319 193.369 493.87 193.369C494.296 193.369 494.633 193.44 494.88 193.582C495.13 193.722 495.32 193.881 495.451 194.06C495.585 194.236 495.688 194.381 495.762 194.494H495.847V191.273H496.853V200H495.881V198.994H495.762C495.688 199.114 495.583 199.264 495.447 199.446C495.31 199.625 495.116 199.786 494.863 199.928C494.61 200.067 494.273 200.136 493.853 200.136ZM493.989 199.233C494.393 199.233 494.734 199.128 495.012 198.918C495.29 198.705 495.502 198.411 495.647 198.036C495.792 197.658 495.864 197.222 495.864 196.727C495.864 196.239 495.793 195.811 495.651 195.445C495.509 195.075 495.299 194.788 495.021 194.584C494.742 194.376 494.398 194.273 493.989 194.273C493.563 194.273 493.208 194.382 492.924 194.601C492.643 194.817 492.431 195.111 492.289 195.483C492.15 195.852 492.08 196.267 492.08 196.727C492.08 197.193 492.151 197.616 492.293 197.997C492.438 198.375 492.651 198.676 492.933 198.901C493.217 199.122 493.569 199.233 493.989 199.233ZM501.579 200.136C500.948 200.136 500.404 199.997 499.947 199.719C499.492 199.438 499.141 199.045 498.894 198.543C498.65 198.037 498.528 197.449 498.528 196.778C498.528 196.108 498.65 195.517 498.894 195.006C499.141 194.491 499.485 194.091 499.925 193.804C500.369 193.514 500.886 193.369 501.477 193.369C501.817 193.369 502.154 193.426 502.487 193.54C502.819 193.653 503.121 193.838 503.394 194.094C503.667 194.347 503.884 194.682 504.046 195.099C504.208 195.517 504.289 196.031 504.289 196.642V197.068H499.244V196.199H503.266C503.266 195.83 503.192 195.5 503.045 195.21C502.9 194.92 502.692 194.692 502.423 194.524C502.156 194.357 501.84 194.273 501.477 194.273C501.076 194.273 500.729 194.372 500.437 194.571C500.147 194.767 499.924 195.023 499.768 195.338C499.612 195.653 499.533 195.991 499.533 196.352V196.932C499.533 197.426 499.619 197.845 499.789 198.189C499.962 198.53 500.202 198.79 500.509 198.969C500.816 199.145 501.173 199.233 501.579 199.233C501.843 199.233 502.082 199.196 502.295 199.122C502.511 199.045 502.697 198.932 502.853 198.781C503.009 198.628 503.13 198.437 503.215 198.21L504.187 198.483C504.085 198.812 503.913 199.102 503.671 199.352C503.43 199.599 503.131 199.793 502.776 199.932C502.421 200.068 502.022 200.136 501.579 200.136ZM506.825 191.273V200H505.819V191.273H506.825ZM511.411 200.136C510.78 200.136 510.236 199.997 509.779 199.719C509.324 199.438 508.973 199.045 508.726 198.543C508.482 198.037 508.36 197.449 508.36 196.778C508.36 196.108 508.482 195.517 508.726 195.006C508.973 194.491 509.317 194.091 509.757 193.804C510.201 193.514 510.718 193.369 511.309 193.369C511.65 193.369 511.986 193.426 512.319 193.54C512.651 193.653 512.953 193.838 513.226 194.094C513.499 194.347 513.716 194.682 513.878 195.099C514.04 195.517 514.121 196.031 514.121 196.642V197.068H509.076V196.199H513.098C513.098 195.83 513.025 195.5 512.877 195.21C512.732 194.92 512.525 194.692 512.255 194.524C511.988 194.357 511.672 194.273 511.309 194.273C510.908 194.273 510.561 194.372 510.269 194.571C509.979 194.767 509.756 195.023 509.6 195.338C509.444 195.653 509.365 195.991 509.365 196.352V196.932C509.365 197.426 509.451 197.845 509.621 198.189C509.794 198.53 510.034 198.79 510.341 198.969C510.648 199.145 511.005 199.233 511.411 199.233C511.675 199.233 511.914 199.196 512.127 199.122C512.343 199.045 512.529 198.932 512.685 198.781C512.841 198.628 512.962 198.437 513.047 198.21L514.019 198.483C513.917 198.812 513.745 199.102 513.503 199.352C513.262 199.599 512.963 199.793 512.608 199.932C512.253 200.068 511.854 200.136 511.411 200.136ZM518.498 193.455V194.307H515.105V193.455H518.498ZM516.094 191.886H517.1V198.125C517.1 198.409 517.141 198.622 517.223 198.764C517.309 198.903 517.417 198.997 517.547 199.045C517.681 199.091 517.821 199.114 517.969 199.114C518.08 199.114 518.171 199.108 518.242 199.097C518.313 199.082 518.37 199.071 518.412 199.062L518.617 199.966C518.549 199.991 518.453 200.017 518.331 200.043C518.209 200.071 518.054 200.085 517.867 200.085C517.583 200.085 517.304 200.024 517.032 199.902C516.762 199.78 516.537 199.594 516.358 199.344C516.182 199.094 516.094 198.778 516.094 198.398V191.886ZM522.684 200.136C522.054 200.136 521.51 199.997 521.052 199.719C520.598 199.438 520.247 199.045 520 198.543C519.755 198.037 519.633 197.449 519.633 196.778C519.633 196.108 519.755 195.517 520 195.006C520.247 194.491 520.591 194.091 521.031 193.804C521.474 193.514 521.991 193.369 522.582 193.369C522.923 193.369 523.26 193.426 523.592 193.54C523.924 193.653 524.227 193.838 524.5 194.094C524.772 194.347 524.99 194.682 525.152 195.099C525.314 195.517 525.395 196.031 525.395 196.642V197.068H520.349V196.199H524.372C524.372 195.83 524.298 195.5 524.15 195.21C524.005 194.92 523.798 194.692 523.528 194.524C523.261 194.357 522.946 194.273 522.582 194.273C522.181 194.273 521.835 194.372 521.542 194.571C521.252 194.767 521.029 195.023 520.873 195.338C520.717 195.653 520.639 195.991 520.639 196.352V196.932C520.639 197.426 520.724 197.845 520.895 198.189C521.068 198.53 521.308 198.79 521.615 198.969C521.922 199.145 522.278 199.233 522.684 199.233C522.949 199.233 523.187 199.196 523.4 199.122C523.616 199.045 523.802 198.932 523.958 198.781C524.115 198.628 524.235 198.437 524.321 198.21L525.292 198.483C525.19 198.812 525.018 199.102 524.777 199.352C524.535 199.599 524.237 199.793 523.882 199.932C523.527 200.068 523.127 200.136 522.684 200.136ZM532.771 200.136C532.225 200.136 531.744 199.999 531.326 199.723C530.909 199.445 530.582 199.053 530.346 198.547C530.11 198.038 529.993 197.438 529.993 196.744C529.993 196.057 530.11 195.46 530.346 194.955C530.582 194.449 530.91 194.058 531.331 193.783C531.751 193.507 532.237 193.369 532.788 193.369C533.214 193.369 533.551 193.44 533.798 193.582C534.048 193.722 534.238 193.881 534.369 194.06C534.502 194.236 534.606 194.381 534.68 194.494H534.765V191.273H535.771V200H534.799V198.994H534.68C534.606 199.114 534.501 199.264 534.365 199.446C534.228 199.625 534.034 199.786 533.781 199.928C533.528 200.067 533.191 200.136 532.771 200.136ZM532.907 199.233C533.311 199.233 533.652 199.128 533.93 198.918C534.208 198.705 534.42 198.411 534.565 198.036C534.71 197.658 534.782 197.222 534.782 196.727C534.782 196.239 534.711 195.811 534.569 195.445C534.427 195.075 534.217 194.788 533.939 194.584C533.66 194.376 533.316 194.273 532.907 194.273C532.481 194.273 532.126 194.382 531.842 194.601C531.561 194.817 531.349 195.111 531.207 195.483C531.068 195.852 530.998 196.267 530.998 196.727C530.998 197.193 531.069 197.616 531.211 197.997C531.356 198.375 531.569 198.676 531.85 198.901C532.135 199.122 532.487 199.233 532.907 199.233ZM537.752 200V193.455H538.758V200H537.752ZM538.264 192.364C538.068 192.364 537.899 192.297 537.757 192.163C537.618 192.03 537.548 191.869 537.548 191.682C537.548 191.494 537.618 191.334 537.757 191.2C537.899 191.067 538.068 191 538.264 191C538.46 191 538.627 191.067 538.767 191.2C538.909 191.334 538.98 191.494 538.98 191.682C538.98 191.869 538.909 192.03 538.767 192.163C538.627 192.297 538.46 192.364 538.264 192.364ZM545.237 194.92L544.333 195.176C544.276 195.026 544.192 194.879 544.082 194.737C543.974 194.592 543.826 194.473 543.638 194.379C543.451 194.286 543.211 194.239 542.918 194.239C542.518 194.239 542.184 194.331 541.917 194.516C541.653 194.697 541.521 194.929 541.521 195.21C541.521 195.46 541.612 195.658 541.793 195.803C541.975 195.947 542.259 196.068 542.646 196.165L543.617 196.403C544.202 196.545 544.638 196.763 544.925 197.055C545.212 197.345 545.356 197.719 545.356 198.176C545.356 198.551 545.248 198.886 545.032 199.182C544.819 199.477 544.521 199.71 544.137 199.881C543.754 200.051 543.308 200.136 542.799 200.136C542.131 200.136 541.579 199.991 541.141 199.702C540.704 199.412 540.427 198.989 540.31 198.432L541.265 198.193C541.356 198.545 541.528 198.81 541.781 198.986C542.036 199.162 542.37 199.25 542.782 199.25C543.251 199.25 543.623 199.151 543.898 198.952C544.177 198.75 544.316 198.509 544.316 198.227C544.316 198 544.237 197.81 544.077 197.656C543.918 197.5 543.674 197.384 543.344 197.307L542.254 197.051C541.654 196.909 541.214 196.689 540.933 196.391C540.654 196.089 540.515 195.713 540.515 195.261C540.515 194.892 540.619 194.565 540.826 194.281C541.036 193.997 541.322 193.774 541.683 193.612C542.046 193.45 542.458 193.369 542.918 193.369C543.566 193.369 544.075 193.511 544.444 193.795C544.816 194.08 545.08 194.455 545.237 194.92ZM548.796 200.153C548.381 200.153 548.005 200.075 547.667 199.919C547.328 199.76 547.06 199.531 546.861 199.233C546.662 198.932 546.563 198.568 546.563 198.142C546.563 197.767 546.637 197.463 546.784 197.23C546.932 196.994 547.13 196.81 547.377 196.676C547.624 196.543 547.897 196.443 548.195 196.378C548.496 196.31 548.799 196.256 549.103 196.216C549.5 196.165 549.823 196.126 550.07 196.101C550.32 196.072 550.502 196.026 550.615 195.96C550.732 195.895 550.79 195.781 550.79 195.619V195.585C550.79 195.165 550.675 194.838 550.445 194.605C550.218 194.372 549.873 194.256 549.409 194.256C548.929 194.256 548.553 194.361 548.28 194.571C548.007 194.781 547.816 195.006 547.705 195.244L546.75 194.903C546.921 194.506 547.148 194.196 547.432 193.974C547.719 193.75 548.032 193.594 548.37 193.506C548.711 193.415 549.046 193.369 549.375 193.369C549.586 193.369 549.827 193.395 550.1 193.446C550.375 193.494 550.641 193.595 550.897 193.749C551.155 193.902 551.37 194.134 551.54 194.443C551.711 194.753 551.796 195.168 551.796 195.688V200H550.79V199.114H550.739C550.671 199.256 550.557 199.408 550.398 199.57C550.239 199.732 550.027 199.869 549.763 199.983C549.499 200.097 549.176 200.153 548.796 200.153ZM548.949 199.25C549.347 199.25 549.682 199.172 549.955 199.016C550.23 198.859 550.438 198.658 550.577 198.411C550.719 198.163 550.79 197.903 550.79 197.631V196.71C550.748 196.761 550.654 196.808 550.509 196.851C550.367 196.891 550.202 196.926 550.015 196.957C549.83 196.986 549.65 197.011 549.473 197.034C549.3 197.054 549.159 197.071 549.051 197.085C548.79 197.119 548.546 197.175 548.319 197.251C548.094 197.325 547.912 197.437 547.773 197.588C547.637 197.736 547.569 197.937 547.569 198.193C547.569 198.543 547.698 198.807 547.956 198.986C548.218 199.162 548.549 199.25 548.949 199.25ZM553.768 200V191.273H554.773V194.494H554.859C554.933 194.381 555.035 194.236 555.165 194.06C555.299 193.881 555.489 193.722 555.737 193.582C555.987 193.44 556.325 193.369 556.751 193.369C557.302 193.369 557.788 193.507 558.208 193.783C558.629 194.058 558.957 194.449 559.192 194.955C559.428 195.46 559.546 196.057 559.546 196.744C559.546 197.438 559.428 198.038 559.192 198.547C558.957 199.053 558.63 199.445 558.212 199.723C557.795 199.999 557.313 200.136 556.768 200.136C556.347 200.136 556.011 200.067 555.758 199.928C555.505 199.786 555.31 199.625 555.174 199.446C555.038 199.264 554.933 199.114 554.859 198.994H554.739V200H553.768ZM554.756 196.727C554.756 197.222 554.829 197.658 554.974 198.036C555.119 198.411 555.33 198.705 555.609 198.918C555.887 199.128 556.228 199.233 556.631 199.233C557.052 199.233 557.403 199.122 557.684 198.901C557.968 198.676 558.181 198.375 558.323 197.997C558.468 197.616 558.54 197.193 558.54 196.727C558.54 196.267 558.469 195.852 558.327 195.483C558.188 195.111 557.977 194.817 557.692 194.601C557.411 194.382 557.058 194.273 556.631 194.273C556.222 194.273 555.879 194.376 555.6 194.584C555.322 194.788 555.112 195.075 554.969 195.445C554.827 195.811 554.756 196.239 554.756 196.727ZM562.09 191.273V200H561.085V191.273H562.09ZM566.676 200.136C566.046 200.136 565.502 199.997 565.044 199.719C564.59 199.438 564.239 199.045 563.992 198.543C563.748 198.037 563.625 197.449 563.625 196.778C563.625 196.108 563.748 195.517 563.992 195.006C564.239 194.491 564.583 194.091 565.023 193.804C565.466 193.514 565.983 193.369 566.574 193.369C566.915 193.369 567.252 193.426 567.584 193.54C567.917 193.653 568.219 193.838 568.492 194.094C568.765 194.347 568.982 194.682 569.144 195.099C569.306 195.517 569.387 196.031 569.387 196.642V197.068H564.341V196.199H568.364C568.364 195.83 568.29 195.5 568.142 195.21C567.998 194.92 567.79 194.692 567.52 194.524C567.253 194.357 566.938 194.273 566.574 194.273C566.174 194.273 565.827 194.372 565.534 194.571C565.245 194.767 565.022 195.023 564.865 195.338C564.709 195.653 564.631 195.991 564.631 196.352V196.932C564.631 197.426 564.716 197.845 564.887 198.189C565.06 198.53 565.3 198.79 565.607 198.969C565.914 199.145 566.27 199.233 566.676 199.233C566.941 199.233 567.179 199.196 567.392 199.122C567.608 199.045 567.794 198.932 567.951 198.781C568.107 198.628 568.228 198.437 568.313 198.21L569.284 198.483C569.182 198.812 569.01 199.102 568.769 199.352C568.527 199.599 568.229 199.793 567.874 199.932C567.519 200.068 567.12 200.136 566.676 200.136ZM573.388 200.136C572.843 200.136 572.361 199.999 571.944 199.723C571.526 199.445 571.199 199.053 570.963 198.547C570.728 198.038 570.61 197.438 570.61 196.744C570.61 196.057 570.728 195.46 570.963 194.955C571.199 194.449 571.527 194.058 571.948 193.783C572.368 193.507 572.854 193.369 573.405 193.369C573.831 193.369 574.168 193.44 574.415 193.582C574.665 193.722 574.855 193.881 574.986 194.06C575.12 194.236 575.223 194.381 575.297 194.494H575.382V191.273H576.388V200H575.417V198.994H575.297C575.223 199.114 575.118 199.264 574.982 199.446C574.846 199.625 574.651 199.786 574.398 199.928C574.145 200.067 573.809 200.136 573.388 200.136ZM573.525 199.233C573.928 199.233 574.269 199.128 574.547 198.918C574.826 198.705 575.037 198.411 575.182 198.036C575.327 197.658 575.4 197.222 575.4 196.727C575.4 196.239 575.328 195.811 575.186 195.445C575.044 195.075 574.834 194.788 574.556 194.584C574.277 194.376 573.934 194.273 573.525 194.273C573.098 194.273 572.743 194.382 572.459 194.601C572.178 194.817 571.966 195.111 571.824 195.483C571.685 195.852 571.615 196.267 571.615 196.727C571.615 197.193 571.686 197.616 571.828 197.997C571.973 198.375 572.186 198.676 572.468 198.901C572.752 199.122 573.104 199.233 573.525 199.233ZM580.517 196.318C580.517 197.392 580.377 198.381 580.096 199.284C579.817 200.185 579.418 201.014 578.898 201.773H578.012C578.216 201.491 578.407 201.145 578.583 200.733C578.762 200.324 578.918 199.875 579.051 199.386C579.185 198.895 579.289 198.388 579.363 197.865C579.439 197.339 579.478 196.824 579.478 196.318C579.478 195.642 579.412 194.956 579.282 194.26C579.151 193.564 578.975 192.918 578.753 192.321C578.532 191.724 578.284 191.239 578.012 190.864H578.898C579.418 191.622 579.817 192.453 580.096 193.357C580.377 194.257 580.517 195.244 580.517 196.318Z" fill="#666666"/>
</g>
<defs>
<clipPath id="clip0_3314_2">
<rect width="1440" height="900" fill="white"/>
</clipPath>
</defs>
</svg>
